<svg xmlns="http://www.w3.org/2000/svg" fill-rule="evenodd" stroke-linejoin="round" stroke-miterlimit="2" clip-rule="evenodd" viewBox="0 0 779 237">
  <path d="M0 3h778.5v231H0z"/>
  <path fill="#1a1c1e" d="M0 234h778.5v1.5H0z"/>
  <path fill="#0c0e0e" d="M0 235.5h778.5v1.5H0z"/>
  <path fill="#1a1c1e" d="M0 0h778.5v1.5H0z"/>
  <path fill="#0c0e0e" d="M0 1.5h778.5V3H0z"/>
  <path fill="#b2b2b2" fill-rule="nonzero" d="M100.4 63.2h-8l-1.8 5H88l7.3-19.1h2.2l7.4 19.2h-2.6l-1.9-5zm-7.2-2h6.5l-3.3-9-3.2 9zM109.4 54v1.8c1.1-1.4 2.6-2 4.3-2 3 0 4.6 1.6 4.6 5v9.5h-2.5v-9.5c0-1-.2-1.8-.7-2.3-.4-.5-1.1-.7-2.1-.7-.8 0-1.5.2-2.1.6-.6.5-1 1-1.4 1.7v10.2h-2.4V54h2.3zM121.4 61c0-2.2.5-4 1.5-5.3a5 5 0 014.1-2 5 5 0 014 1.7V48h2.4v20.3h-2.2l-.2-1.6a5 5 0 01-4 1.8c-1.7 0-3-.7-4-2a8.4 8.4 0 01-1.6-5.3V61zm2.4.3c0 1.6.3 2.9 1 3.8.7.9 1.6 1.4 2.8 1.4 1.5 0 2.7-.7 3.4-2.1v-6.6c-.8-1.3-1.9-2-3.4-2-1.2 0-2.1.5-2.8 1.4a7 7 0 00-1 4zM144 56.2L143 56c-1.6 0-2.7.7-3.3 2v10.2h-2.4V54h2.4v1.6c.8-1.2 2-1.9 3.4-1.9.5 0 .8 0 1 .2v2.3zM145.4 61c0-1.4.3-2.7.8-3.8a6.1 6.1 0 015.7-3.5c2 0 3.5.7 4.7 2a7.8 7.8 0 011.8 5.4v.2c0 1.4-.3 2.6-.8 3.7a6 6 0 01-5.7 3.5 6 6 0 01-4.7-2 7.7 7.7 0 01-1.8-5.3V61zm2.5.3c0 1.6.3 2.8 1 3.8.8 1 1.8 1.4 3 1.4 1.3 0 2.2-.5 3-1.4.7-1 1-2.4 1-4.1a6 6 0 00-1-3.8c-.8-1-1.8-1.5-3-1.5s-2.2.5-3 1.5c-.7 1-1 2.3-1 4zM164.1 68.3h-2.4V54h2.4v14.3zm-2.6-18c0-.5.1-.8.3-1 .3-.4.6-.5 1.1-.5.5 0 .8.1 1.1.4.2.3.4.6.4 1s-.2.7-.4 1c-.3.3-.6.4-1 .4-.6 0-1-.1-1.2-.4-.2-.3-.3-.6-.3-1zM167.4 61c0-2.2.5-4 1.6-5.3a5 5 0 014-2 5 5 0 014 1.7V48h2.5v20.3h-2.3l-.1-1.6a5 5 0 01-4 1.8c-1.7 0-3-.7-4.1-2a8.5 8.5 0 01-1.6-5.3V61zm2.5.3c0 1.6.3 2.9 1 3.8.6.9 1.6 1.4 2.7 1.4 1.6 0 2.7-.7 3.4-2.1v-6.6c-.7-1.3-1.8-2-3.3-2-1.2 0-2.2.5-2.8 1.4a7 7 0 00-1 4zM205 68.3h-2.5L193 53.5v14.8h-2.6V49h2.6l9.6 14.8V49.1h2.6v19.2zM208.5 61c0-1.4.3-2.7.9-3.8a6.1 6.1 0 015.6-3.5c2 0 3.5.7 4.7 2a7.8 7.8 0 011.8 5.4v.2c0 1.4-.3 2.6-.8 3.7a6 6 0 01-5.7 3.5 6 6 0 01-4.7-2 7.7 7.7 0 01-1.8-5.3V61zm2.5.3c0 1.6.3 2.8 1 3.8.8 1 1.8 1.4 3 1.4 1.3 0 2.3-.5 3-1.4.7-1 1-2.4 1-4.1a6 6 0 00-1-3.8c-.8-1-1.8-1.5-3-1.5s-2.2.5-3 1.5c-.6 1-1 2.3-1 4zM227.9 50.5V54h2.6v1.9H228v8.8c0 .6.1 1 .3 1.3.3.3.7.5 1.3.5l1.1-.2v2l-1.9.2c-1 0-1.9-.3-2.4-1-.6-.6-.9-1.6-.9-2.8V56h-2.6v-2h2.6v-3.4h2.5zM236 68.3h-2.4V54h2.4v14.3zm-2.6-18c0-.5.1-.8.4-1 .2-.4.6-.5 1-.5.5 0 .9.1 1.1.4.3.3.4.6.4 1s-.1.7-.4 1c-.2.3-.6.4-1 .4-.5 0-.9-.1-1.1-.4-.3-.3-.4-.6-.4-1zM240.8 68.3V55.9h-2.3v-2h2.3v-1.1A5 5 0 01242 49c1-1 2.2-1.4 3.9-1.4 1 0 2.2.3 3.7.8l-.4 2a8.5 8.5 0 00-3.1-.6c-1 0-1.8.3-2.3.7-.5.5-.7 1.2-.7 2.2V54h3v1.9h-3v12.4h-2.4zm10.1 0h-2.4V54h2.4v14.3zM260.6 66.5c.9 0 1.6-.2 2.3-.8.6-.5 1-1.1 1-2h2.4c0 .9-.3 1.7-.9 2.4-.5.7-1.2 1.3-2 1.8a6 6 0 01-2.8.6c-2 0-3.5-.6-4.6-2a7.7 7.7 0 01-1.7-5.2v-.5c0-1.3.2-2.6.7-3.7a5.8 5.8 0 015.6-3.4c1.6 0 3 .5 4 1.5s1.6 2.2 1.7 3.7H264c0-1-.4-1.7-1-2.3-.7-.6-1.5-.9-2.4-.9-1.2 0-2.2.5-2.9 1.4-.7.9-1 2.2-1 3.8v.5c0 1.6.3 3 1 3.8.7.9 1.7 1.3 3 1.3zM277.8 68.3l-.3-1.5a5.4 5.4 0 01-4 1.7 5 5 0 01-3.5-1.2 3.9 3.9 0 01-1.4-3 4 4 0 011.7-3.5 8 8 0 014.8-1.2h2.4v-1.1c0-.9-.3-1.5-.8-2-.5-.6-1.3-.8-2.3-.8-.8 0-1.6.2-2.2.7-.5.4-.8 1-.8 1.5h-2.5c0-.7.3-1.4.8-2 .5-.7 1.2-1.2 2-1.6a7 7 0 012.9-.6c1.6 0 3 .4 3.8 1.3 1 .8 1.5 2 1.5 3.4v6.5a8 8 0 00.5 3.1v.3h-2.6zm-4-1.9c.8 0 1.5-.2 2.2-.6.6-.4 1.1-.9 1.5-1.5v-3h-2c-3 0-4.4 1-4.4 2.7 0 .7.2 1.3.7 1.8a3 3 0 002 .6zM287 50.5V54h2.7v1.9H287v8.8c0 .6.1 1 .4 1.3.2.3.6.5 1.2.5l1.2-.2v2a7 7 0 01-2 .2c-1 0-1.8-.3-2.4-1-.5-.6-.8-1.6-.8-2.8V56H282v-2h2.6v-3.4h2.4zM295.2 68.3h-2.5V54h2.5v14.3zm-2.7-18c0-.5.2-.8.4-1 .3-.4.6-.5 1-.5.6 0 1 .1 1.2.4.2.3.3.6.3 1s0 .7-.3 1c-.3.3-.6.4-1.1.4-.5 0-.8-.1-1-.4-.3-.3-.5-.6-.5-1zM298.4 61c0-1.4.3-2.7.9-3.8a6.1 6.1 0 015.6-3.5c2 0 3.5.7 4.7 2a7.8 7.8 0 011.8 5.4v.2c0 1.4-.2 2.6-.8 3.7a6 6 0 01-5.7 3.5 6 6 0 01-4.7-2 7.7 7.7 0 01-1.8-5.3V61zm2.5.3c0 1.6.4 2.8 1 3.8.8 1 1.8 1.4 3 1.4 1.3 0 2.3-.5 3-1.4.7-1 1-2.4 1-4.1a6 6 0 00-1-3.8c-.8-1-1.8-1.5-3-1.5s-2.2.5-2.9 1.5c-.7 1-1.1 2.3-1.1 4zM316.8 54v1.8c1.2-1.4 2.6-2 4.3-2 3 0 4.6 1.6 4.6 5v9.5h-2.4v-9.5c0-1-.3-1.8-.7-2.3-.5-.5-1.2-.7-2.2-.7-.8 0-1.5.2-2 .6-.7.5-1.1 1-1.5 1.7v10.2h-2.4V54h2.3z"/>
  <path fill="#aeaeae" fill-rule="nonzero" d="M53.7 180.8h-3l-11-17v17h-3v-22h3l11.1 17v-17h2.9v22zM57.7 172.4c0-1.6.3-3 1-4.3a7 7 0 016.4-4 7 7 0 015.4 2.3 9 9 0 012 6.2v.1c0 1.6-.2 3-.8 4.3a7 7 0 01-6.6 4c-2.2 0-4-.7-5.4-2.3a8.9 8.9 0 01-2-6v-.3zm2.8.3a7 7 0 001.2 4.4 4 4 0 003.4 1.7 4 4 0 003.4-1.7 7.7 7.7 0 001.3-4.7 7 7 0 00-1.3-4.4 4 4 0 00-3.4-1.6 4 4 0 00-3.3 1.6 7.6 7.6 0 00-1.3 4.8zM79.9 160.4v4h3v2.1h-3v10.2c0 .7.1 1.2.4 1.5.3.3.7.5 1.4.5.3 0 .8 0 1.3-.2v2.3l-2.1.3c-1.3 0-2.2-.4-2.9-1.2-.6-.7-1-1.8-1-3.2v-10.2h-2.9v-2.1h3v-4h2.8zM89.3 180.8h-2.8v-16.4h2.8v16.4zm-3-20.8c0-.4 0-.8.3-1.1.3-.3.7-.5 1.3-.5.5 0 1 .2 1.2.5.3.3.4.7.4 1.1 0 .5 0 .9-.4 1.2-.3.3-.7.4-1.2.4-.6 0-1-.1-1.3-.4-.2-.3-.4-.7-.4-1.2zM94.7 180.8v-14.3H92v-2.1h2.6V163c0-1.8.5-3.3 1.5-4.3a6 6 0 014.5-1.5c1.1 0 2.5.3 4.3 1l-.5 2.3a9.7 9.7 0 00-3.6-.8c-1.2 0-2 .3-2.6.8-.5.6-.8 1.4-.8 2.5v1.4h3.3v2.1h-3.3v14.3h-2.8zm11.6 0h-2.8v-16.4h2.8v16.4zM117.5 178.8a4 4 0 002.6-1c.7-.5 1.2-1.3 1.2-2.2h2.7a5 5 0 01-1 2.7 6.9 6.9 0 01-5.5 2.8c-2.3 0-4-.8-5.3-2.3a8.9 8.9 0 01-2-6v-.6c0-1.5.3-3 .9-4.2a6.7 6.7 0 016.4-4c1.8 0 3.3.6 4.5 1.7a5.9 5.9 0 012 4.3h-2.7c0-1-.4-2-1.2-2.6-.7-.7-1.6-1-2.6-1a4 4 0 00-3.3 1.5c-.8 1-1.2 2.5-1.2 4.5v.5a7 7 0 001.1 4.3 4 4 0 003.4 1.6zM137.2 180.8l-.4-1.8a6.2 6.2 0 01-4.6 2c-1.6 0-3-.4-4-1.3-1-1-1.5-2-1.5-3.5 0-1.7.6-3 2-4 1.2-.9 3-1.4 5.4-1.4h2.7v-1.3c0-1-.3-1.7-.9-2.3-.6-.6-1.4-.9-2.6-.9a4 4 0 00-2.5.8c-.7.5-1 1.1-1 1.8H127c0-.8.3-1.6.9-2.3a6 6 0 012.3-1.9c1-.4 2.1-.6 3.3-.6 1.9 0 3.4.4 4.4 1.4 1.1 1 1.7 2.2 1.7 3.9v7.5c0 1.5.2 2.7.6 3.6v.3h-3zm-4.6-2.2a5 5 0 002.5-.7c.8-.4 1.4-1 1.7-1.7v-3.4h-2.2c-3.4 0-5.1 1-5.1 3 0 .9.3 1.6.8 2 .6.6 1.4.8 2.3.8zM147.8 160.4v4h3v2.1h-3v10.2c0 .7.1 1.2.4 1.5.3.3.7.5 1.4.5.3 0 .8 0 1.3-.2v2.3l-2.1.3c-1.3 0-2.2-.4-2.9-1.2-.6-.7-1-1.8-1-3.2v-10.2H142v-2.1h3v-4h2.8zM157.2 180.8h-2.8v-16.4h2.8v16.4zm-3-20.8c0-.4 0-.8.4-1.1.2-.3.6-.5 1.2-.5.5 0 1 .2 1.2.5.3.3.5.7.5 1.1 0 .5-.2.9-.5 1.2-.3.3-.7.4-1.2.4-.6 0-1-.1-1.2-.4-.3-.3-.5-.7-.5-1.2zM160.9 172.4c0-1.6.3-3 1-4.3a7 7 0 016.4-4 7 7 0 015.4 2.3 9 9 0 012.1 6.2v.1c0 1.6-.3 3-1 4.3a7 7 0 01-6.4 4c-2.3 0-4-.7-5.4-2.3a8.9 8.9 0 01-2.1-6v-.3zm2.8.3a7 7 0 001.3 4.4 4 4 0 003.4 1.7 4 4 0 003.4-1.7 7.7 7.7 0 001.2-4.7 7 7 0 00-1.3-4.4 4 4 0 00-3.4-1.6 4 4 0 00-3.3 1.6 7.6 7.6 0 00-1.3 4.8zM182 164.4v2a6 6 0 015-2.3c3.4 0 5.2 2 5.2 5.8v10.9h-2.8v-10.9c0-1.2-.3-2-.8-2.6-.5-.6-1.4-.8-2.5-.8a4 4 0 00-2.4.7 5 5 0 00-1.6 1.9v11.7h-2.8v-16.4h2.7zM203.4 172.4c0-2.5.6-4.5 1.8-6a5.6 5.6 0 014.7-2.3c1.9 0 3.4.6 4.5 2v-8.6h2.8v23.3h-2.5l-.2-1.8a5.7 5.7 0 01-4.6 2c-2 0-3.5-.7-4.7-2.3a9.7 9.7 0 01-1.8-6v-.3zm2.8.3c0 2 .4 3.4 1.2 4.4.7 1 1.8 1.6 3.1 1.6a4 4 0 004-2.4v-7.5a4.1 4.1 0 00-4-2.3c-1.3 0-2.4.5-3.1 1.5a8 8 0 00-1.2 4.8zM228.4 181c-2.2 0-4-.7-5.4-2.1a8.1 8.1 0 01-2.1-5.9v-.5c0-1.6.3-3 .9-4.3a7.3 7.3 0 012.6-3c1.1-.8 2.3-1.1 3.6-1.1 2.2 0 3.8.7 5 2a9.1 9.1 0 011.8 6.1v1.2h-11.1c0 1.6.5 2.9 1.4 3.9.9 1 2 1.5 3.4 1.5 1 0 1.9-.2 2.5-.6.7-.4 1.3-1 1.8-1.6l1.8 1.3a6.9 6.9 0 01-6.2 3.2zm-.4-14.6c-1.1 0-2 .4-2.8 1.2a6 6 0 00-1.4 3.5h8.2v-.2c-.1-1.5-.5-2.6-1.2-3.3a3.5 3.5 0 00-2.8-1.2zM247.5 176.4a2 2 0 00-.8-1.7c-.6-.5-1.6-.8-3-1.1-1.4-.3-2.5-.7-3.4-1.1-.8-.4-1.4-1-1.8-1.5-.4-.6-.6-1.3-.6-2.1 0-1.4.6-2.5 1.7-3.4 1.1-1 2.6-1.4 4.3-1.4 1.9 0 3.4.5 4.6 1.4 1.1 1 1.7 2.2 1.7 3.7h-2.8c0-.8-.3-1.4-1-2-.6-.5-1.5-.8-2.5-.8s-1.8.2-2.4.6c-.5.5-.8 1-.8 1.8 0 .7.3 1.2.8 1.5.5.4 1.5.7 2.9 1 1.4.3 2.5.7 3.4 1.1a5 5 0 012 1.6c.3.6.5 1.3.5 2.2 0 1.5-.5 2.7-1.7 3.5a7.4 7.4 0 01-4.6 1.4c-1.3 0-2.4-.3-3.4-.7-1-.5-1.8-1.1-2.4-2-.6-.8-.9-1.7-.9-2.7h2.8c0 1 .5 1.7 1.2 2.2.7.6 1.6.9 2.7.9 1 0 2-.2 2.6-.7.6-.4 1-1 1-1.7zM260.6 178.8a4 4 0 002.6-1c.7-.5 1.1-1.3 1.2-2.2h2.7a5 5 0 01-1 2.7 6.9 6.9 0 01-5.5 2.8c-2.3 0-4-.8-5.4-2.3a8.9 8.9 0 01-2-6v-.6c0-1.5.4-3 1-4.2a6.7 6.7 0 016.3-4c1.9 0 3.4.6 4.6 1.7a5.9 5.9 0 012 4.3h-2.7c0-1-.5-2-1.2-2.6-.7-.7-1.6-1-2.7-1a4 4 0 00-3.3 1.5c-.7 1-1.1 2.5-1.1 4.5v.5a7 7 0 001.1 4.3 4 4 0 003.4 1.6zM278.1 166.9l-1.3-.1c-1.9 0-3.1.8-3.8 2.3v11.7h-2.8v-16.4h2.7v1.9c1-1.5 2.3-2.2 4-2.2.5 0 1 0 1.2.2v2.6zM283.8 180.8H281v-16.4h2.8v16.4zm-3-20.8c0-.4 0-.8.3-1.1.3-.3.7-.5 1.3-.5.5 0 1 .2 1.2.5.3.3.4.7.4 1.1 0 .5-.1.9-.4 1.2-.3.3-.7.4-1.2.4-.6 0-1-.1-1.3-.4-.2-.3-.4-.7-.4-1.2zM302 172.8c0 2.4-.5 4.5-1.6 6a5.5 5.5 0 01-4.7 2.3 6 6 0 01-4.7-2v8h-2.8v-22.7h2.6l.1 1.8a5.8 5.8 0 014.8-2.1c2 0 3.5.7 4.6 2.2a10 10 0 011.8 6.2v.2zm-2.7-.4c0-1.8-.4-3.3-1.2-4.3-.8-1.1-1.9-1.6-3.3-1.6-1.6 0-3 .7-3.8 2.2v7.8a4.1 4.1 0 003.9 2.3c1.3 0 2.4-.6 3.2-1.6.8-1 1.2-2.7 1.2-4.8zM309.4 160.4v4h3v2.1h-3v10.2c0 .7.2 1.2.4 1.5.3.3.8.5 1.4.5.3 0 .8 0 1.4-.2v2.3l-2.2.3c-1.2 0-2.2-.4-2.8-1.2-.7-.7-1-1.8-1-3.2v-10.2h-3v-2.1h3v-4h2.8zM318.8 180.8H316v-16.4h2.8v16.4zm-3-20.8c0-.4.1-.8.4-1.1.3-.3.7-.5 1.2-.5.6 0 1 .2 1.3.5.2.3.4.7.4 1.1 0 .5-.2.9-.4 1.2-.3.3-.7.4-1.3.4-.5 0-1-.1-1.2-.4-.3-.3-.4-.7-.4-1.2zM322.5 172.4c0-1.6.3-3 1-4.3a7 7 0 016.5-4 7 7 0 015.4 2.3 9 9 0 012 6.2v.1c0 1.6-.3 3-.9 4.3a7 7 0 01-6.5 4c-2.2 0-4-.7-5.4-2.3a8.9 8.9 0 01-2-6v-.3zm2.8.3a7 7 0 001.3 4.4 4 4 0 003.4 1.7 4 4 0 003.4-1.7 7.7 7.7 0 001.2-4.7 7 7 0 00-1.2-4.4 4 4 0 00-3.4-1.6 4 4 0 00-3.4 1.6 7.6 7.6 0 00-1.3 4.8zM343.6 164.4v2a6 6 0 015-2.3c3.5 0 5.2 2 5.2 5.8v10.9H351v-10.9c0-1.2-.2-2-.8-2.6-.5-.6-1.3-.8-2.5-.8a4 4 0 00-2.3.7 5 5 0 00-1.6 1.9v11.7H341v-16.4h2.6z"/>
  <path fill="#ddd" fill-rule="nonzero" d="M54.2 138h-3l-11.4-17.5V138h-3v-22.7h3l11.5 17.6v-17.6h3V138zM58.3 129.4c0-1.7.4-3.1 1-4.5a7.3 7.3 0 016.7-4.1c2.3 0 4.2.8 5.6 2.4a9.2 9.2 0 012.1 6.3v.2a10 10 0 01-1 4.5 7.2 7.2 0 01-6.7 4.1c-2.2 0-4.1-.8-5.5-2.4a9.2 9.2 0 01-2.2-6.3v-.2zm3 .3c0 2 .4 3.4 1.3 4.6.8 1 2 1.7 3.4 1.7 1.5 0 2.7-.6 3.5-1.8a8 8 0 001.3-4.8c0-1.9-.4-3.4-1.3-4.5-.9-1.2-2-1.7-3.5-1.7-1.4 0-2.6.5-3.4 1.7a7.8 7.8 0 00-1.4 4.8zM81.3 117v4.1h3.1v2.2h-3.1v10.5c0 .7.1 1.2.4 1.6.3.3.8.5 1.4.5l1.4-.2v2.3c-.7.2-1.5.3-2.2.3-1.3 0-2.3-.4-3-1.2a5 5 0 01-1-3.3v-10.5h-3v-2.2h3v-4h3zM91 138h-3v-16.9h3v17zm-3.2-21.4c0-.5.2-.8.5-1.2.2-.3.7-.5 1.2-.5.6 0 1 .2 1.3.5.3.4.5.7.5 1.2s-.2.9-.5 1.2c-.3.3-.7.5-1.3.5-.5 0-1-.2-1.2-.5-.3-.3-.5-.7-.5-1.2zM96.5 138v-14.7H94v-2.2h2.6v-1.4c0-2 .6-3.4 1.7-4.4 1-1 2.6-1.6 4.5-1.6 1.2 0 2.7.3 4.5 1l-.5 2.4a10 10 0 00-3.7-.8c-1.3 0-2.2.3-2.7.8-.6.6-.8 1.4-.8 2.5v1.5h3.4v2.2h-3.4V138h-3zm12 0h-2.8v-16.9h2.9v17zM120 136c1.1 0 2-.4 2.8-1 .8-.6 1.2-1.4 1.3-2.3h2.7c0 1-.4 1.9-1 2.7-.6 1-1.4 1.6-2.5 2.1-1 .6-2 .8-3.2.8a7 7 0 01-5.5-2.3 9.2 9.2 0 01-2-6.3v-.5c0-1.6.2-3 .9-4.4a6.9 6.9 0 016.6-4c1.9 0 3.4.6 4.7 1.7a6 6 0 012 4.4h-2.7c-.1-1-.5-2-1.3-2.7-.7-.7-1.6-1-2.7-1a4 4 0 00-3.5 1.5c-.8 1.1-1.2 2.6-1.2 4.6v.6c0 2 .4 3.4 1.2 4.5a4 4 0 003.5 1.6zM140.5 138a6 6 0 01-.4-1.8c-1.4 1.4-3 2.1-4.8 2.1a6 6 0 01-4.1-1.4c-1.1-1-1.6-2.1-1.6-3.6 0-1.7.6-3.1 2-4 1.3-1 3.2-1.5 5.6-1.5h2.8v-1.4c0-1-.3-1.8-.9-2.4-.6-.6-1.5-.9-2.6-.9-1 0-2 .3-2.6.8-.7.5-1 1.1-1 1.9h-3c0-.9.3-1.7 1-2.5.5-.7 1.3-1.4 2.3-1.8 1-.5 2.2-.7 3.4-.7 2 0 3.5.5 4.6 1.5 1.1 1 1.7 2.3 1.7 4v7.8c0 1.5.2 2.7.6 3.7v.2h-3zm-4.8-2.2a5 5 0 002.6-.7c.8-.5 1.4-1 1.7-1.8v-3.5h-2.2c-3.6 0-5.3 1-5.3 3.1 0 1 .3 1.6.9 2.1.6.5 1.3.8 2.3.8zM151.4 117v4.1h3.1v2.2h-3.1v10.5c0 .7.1 1.2.4 1.6.3.3.8.5 1.4.5l1.4-.2v2.3l-2.2.3c-1.3 0-2.3-.4-3-1.2a5 5 0 01-1-3.3v-10.5h-3v-2.2h3v-4h3zM161 138h-2.8v-16.9h2.8v17zm-3-21.4c0-.5 0-.8.4-1.2.2-.3.7-.5 1.2-.5.6 0 1 .2 1.3.5.3.4.4.7.4 1.2s-.1.9-.4 1.2c-.3.3-.7.5-1.3.5-.5 0-1-.2-1.2-.5-.3-.3-.5-.7-.5-1.2zM165 129.4c0-1.7.2-3.1.9-4.5a7.3 7.3 0 016.7-4.1c2.3 0 4.1.8 5.6 2.4a9.2 9.2 0 012.1 6.3v.2a10 10 0 01-1 4.5 7.2 7.2 0 01-6.7 4.1c-2.3 0-4.1-.8-5.6-2.4a9.2 9.2 0 01-2-6.3v-.2zm2.8.3c0 2 .4 3.4 1.3 4.6.9 1 2 1.7 3.5 1.7s2.6-.6 3.5-1.8a8 8 0 001.3-4.8c0-1.9-.4-3.4-1.3-4.5-.9-1.2-2-1.7-3.5-1.7-1.4 0-2.6.5-3.5 1.7a7.8 7.8 0 00-1.3 4.8zM186.7 121.1v2.1c1.3-1.6 3-2.4 5.1-2.4 3.6 0 5.4 2 5.4 6V138h-2.9v-11.2c0-1.2-.3-2.1-.8-2.7-.6-.6-1.4-.9-2.6-.9-.9 0-1.7.3-2.4.8a5 5 0 00-1.7 2v12H184v-16.9h2.8zM213.4 117v4.1h3.2v2.2h-3.2v10.5c0 .7.2 1.2.4 1.6.3.3.8.5 1.5.5l1.4-.2v2.3c-.8.2-1.5.3-2.3.3-1.3 0-2.2-.4-2.9-1.2a5 5 0 01-1-3.3v-10.5h-3v-2.2h3v-4h3zM223 138h-2.8v-16.9h2.9v17zm-3-21.4c0-.5.1-.8.4-1.2.3-.3.7-.5 1.3-.5.5 0 1 .2 1.3.5.2.4.4.7.4 1.2s-.2.9-.4 1.2c-.3.3-.8.5-1.3.5-.6 0-1-.2-1.3-.5-.3-.3-.4-.7-.4-1.2zM231.6 117v4.1h3.2v2.2h-3.2v10.5c0 .7.2 1.2.5 1.6.2.3.7.5 1.4.5l1.4-.2v2.3l-2.2.3c-1.3 0-2.3-.4-3-1.2a5 5 0 01-1-3.3v-10.5h-3v-2.2h3v-4h3zM238.4 114h2.9v24h-2.9zM253 138.3c-2.3 0-4.2-.7-5.6-2.2a8.4 8.4 0 01-2.2-6v-.6c0-1.7.3-3.2 1-4.5a7.5 7.5 0 012.7-3 6.8 6.8 0 013.7-1.2c2.2 0 3.9.7 5.1 2.2a9.4 9.4 0 011.8 6.2v1.2h-11.4c0 1.6.5 3 1.5 4 .9 1 2 1.6 3.5 1.6a5 5 0 002.6-.7c.7-.4 1.3-1 1.9-1.6l1.7 1.4a7.1 7.1 0 01-6.3 3.2zm-.4-15.1c-1.2 0-2.2.4-3 1.2-.7.9-1.2 2-1.4 3.6h8.5v-.2c-.1-1.5-.5-2.6-1.2-3.4a3.6 3.6 0 00-3-1.2z"/>
  <path fill="red" d="M33.8 36.8h42v42h-42z"/>
</svg>
