<svg xmlns="http://www.w3.org/2000/svg" width="400" height="123" viewBox="0 0 300 92">
  <path fill="#fff" d="M0 1.2h300v89H0z"/>
  <path fill="#f6f6f7" d="M0 90.2h300v.6H0z"/>
  <path fill="#cdcdd2" d="M0 90.8h300v.6H0z"/>
  <path fill="#c9cacd" d="M0 0h300v.6H0z"/>
  <path fill="#fdfdfd" d="M0 .6h300v.6H0z"/>
  <path fill="#222" d="M38.7 24.4h-3.1l-.7 1.9h-1l2.8-7.4h.9l2.8 7.4h-1l-.7-2zm-2.8-.8h2.5L37.2 20l-1.3 3.5zM42.1 20.8v.7a2 2 0 011.7-.8c1.2 0 1.8.7 1.8 2v3.6h-1v-3.6c0-.4 0-.7-.2-1l-.9-.2c-.3 0-.5 0-.8.2l-.5.7v3.9h-1v-5.5h1zM46.8 23.5c0-.8.2-1.5.6-2 .4-.5.9-.8 1.5-.8a2 2 0 011.6.7v-2.9h1v7.8h-1v-.6a2 2 0 01-1.6.7c-.6 0-1.1-.3-1.5-.8-.4-.5-.6-1.2-.6-2zm1 .1c0 .6 0 1.1.3 1.5.3.3.6.5 1 .5.7 0 1.1-.3 1.4-.8v-2.5c-.3-.5-.7-.8-1.3-.8-.5 0-.8.2-1.1.5-.3.4-.4 1-.4 1.6zM55.5 21.6h-.4c-.7 0-1 .3-1.3.8v3.9h-1v-5.5h1v.6c.3-.4.7-.7 1.3-.7h.4v1zM56 23.5c0-.5.1-1 .4-1.4.2-.5.5-.8.8-1 .4-.3.8-.4 1.3-.4.8 0 1.4.3 1.8.8.5.5.7 1.2.7 2v.1c0 .6 0 1-.3 1.5a2.3 2.3 0 01-2.2 1.3c-.7 0-1.3-.3-1.8-.8a3 3 0 01-.7-2v-.1zm1 .1c0 .6.1 1.1.4 1.5.3.4.7.5 1.1.5.5 0 .9-.1 1.2-.5.3-.4.4-1 .4-1.6 0-.6-.1-1-.4-1.5-.3-.3-.7-.5-1.2-.5-.4 0-.8.2-1 .5-.4.4-.5 1-.5 1.6zM63.2 26.3h-.9v-5.5h1v5.5zm-1-7c0-.1 0-.2.2-.3l.4-.2c.2 0 .3 0 .4.2l.1.3-.1.4-.4.2c-.2 0-.3 0-.4-.2l-.2-.4zM64.5 23.5c0-.8.2-1.5.6-2 .4-.5 1-.8 1.6-.8a2 2 0 011.5.7v-2.9h1v7.8h-1v-.6a2 2 0 01-1.5.7c-.7 0-1.2-.3-1.6-.8-.4-.5-.6-1.2-.6-2zm1 .1c0 .6 0 1.1.3 1.5.3.3.7.5 1.1.5.6 0 1-.3 1.3-.8v-2.5c-.3-.5-.7-.8-1.3-.8-.4 0-.8.2-1 .5-.3.4-.4 1-.4 1.6zM79 26.3h-1l-3.7-5.7v5.7h-1v-7.4h1l3.8 5.7V19h1v7.4zM80.4 23.5c0-.5 0-1 .3-1.4a2.4 2.4 0 012.2-1.4c.7 0 1.3.3 1.8.8.4.5.7 1.2.7 2v.1c0 .6-.1 1-.3 1.5a2.3 2.3 0 01-2.2 1.3c-.8 0-1.4-.3-1.8-.8a3 3 0 01-.7-2v-.1zm.9.1c0 .6.1 1.1.4 1.5.3.4.7.5 1.2.5.4 0 .8-.1 1.1-.5.3-.4.4-1 .4-1.6 0-.6-.1-1-.4-1.5-.3-.3-.7-.5-1.1-.5-.5 0-.9.2-1.2.5-.3.4-.4 1-.4 1.6zM87.8 19.5v1.3h1v.7h-1V25c0 .3 0 .4.2.5 0 .2.2.2.4.2h.5v.7l-.8.1c-.4 0-.7-.1-.9-.4-.2-.2-.3-.6-.3-1v-3.5h-1v-.7h1v-1.3h1zM91 26.3h-1v-5.5h1v5.5zm-1-7V19l.5-.2c.2 0 .3 0 .4.2l.2.3c0 .2 0 .3-.2.4l-.4.2c-.2 0-.3 0-.4-.2l-.2-.4zM92.8 26.3v-4.8h-.9v-.7h.9v-.5c0-.6.2-1 .5-1.4a2 2 0 011.5-.5l1.4.3-.1.8-1.2-.3c-.4 0-.7.1-1 .3l-.2.8v.5h1.1v.7h-1v4.8h-1zm3.9 0h-1v-5.5h1v5.5zM100.4 25.6c.4 0 .7 0 1-.3.2-.2.3-.4.3-.7h1l-.4.9-.8.7-1 .2c-.8 0-1.4-.2-1.9-.7a3 3 0 01-.6-2v-.3c0-.5 0-1 .3-1.4a2.2 2.2 0 012.1-1.3c.6 0 1.2.2 1.6.6.4.3.6.8.6 1.4h-.9c0-.4-.1-.7-.4-.9-.2-.2-.5-.3-.9-.3-.5 0-.8.1-1 .5-.3.3-.5.8-.5 1.5v.2c0 .6.2 1 .4 1.4.3.4.6.5 1.1.5zM107 26.3a2 2 0 010-.6c-.5.5-1 .7-1.6.7a2 2 0 01-1.4-.5c-.3-.3-.5-.6-.5-1.1 0-.6.2-1 .7-1.4a3 3 0 011.8-.4h1v-.5a1 1 0 00-.4-.7c-.2-.2-.5-.3-.8-.3-.4 0-.7 0-.9.2l-.3.6h-1l.3-.8.8-.6 1.1-.2c.6 0 1.1.2 1.5.5.4.3.5.7.6 1.3V25c0 .5 0 1 .2 1.2v.1h-1zm-1.5-.7c.3 0 .6 0 .8-.2l.6-.6v-1.2h-.7c-1.2 0-1.7.4-1.7 1 0 .3 0 .6.2.7.2.2.5.3.8.3zM110.6 19.5v1.3h1v.7h-1V25l.1.5c.1.2.3.2.5.2h.5v.7l-.8.1c-.4 0-.7-.1-1-.4l-.2-1v-3.5h-1v-.7h1v-1.3h1zM113.8 26.3h-1v-5.5h1v5.5zm-1-7V19l.5-.2c.2 0 .3 0 .4.2l.1.3v.4l-.5.2c-.2 0-.3 0-.4-.2l-.2-.4zM115 23.5c0-.5.1-1 .3-1.4.2-.5.5-.8 1-1 .3-.3.7-.4 1.2-.4.7 0 1.4.3 1.8.8.5.5.7 1.2.7 2v.1c0 .6 0 1-.3 1.5a2.3 2.3 0 01-2.2 1.3c-.7 0-1.3-.3-1.8-.8a3 3 0 01-.7-2v-.1zm1 .1c0 .6 0 1.1.4 1.5.3.4.6.5 1.1.5.5 0 .9-.1 1.1-.5.3-.4.5-1 .5-1.6 0-.6-.2-1-.5-1.5-.2-.3-.6-.5-1.1-.5-.5 0-.8.2-1.1.5-.3.4-.4 1-.4 1.6zM122 20.8l.1.7a2 2 0 011.7-.8c1.1 0 1.7.7 1.7 2v3.6h-1v-3.6c0-.4 0-.7-.2-1l-.8-.2c-.3 0-.6 0-.8.2l-.6.7v3.9h-1v-5.5h1z"/>
  <path fill="#232323" d="M20.7 69.7h-1.1L15.3 63v6.6h-1.1v-8.5h1l4.4 6.5v-6.5h1v8.5zM22.2 66.4c0-.6.1-1.1.4-1.6.2-.5.6-.9 1-1.2.4-.2 1-.4 1.5-.4.8 0 1.5.3 2 1 .6.5.9 1.3.9 2.3 0 .7-.1 1.2-.4 1.7a2.7 2.7 0 01-2.5 1.6c-.9 0-1.6-.3-2-1-.6-.5-.9-1.3-.9-2.3zm1.1.2c0 .7.2 1.2.5 1.7.3.4.8.6 1.3.6s1-.2 1.3-.7c.3-.4.5-1 .5-1.8 0-.7-.2-1.2-.5-1.6-.3-.5-.8-.7-1.3-.7s-1 .2-1.3.6a3 3 0 00-.5 1.9zM30.8 61.8v1.5H32v.9h-1.2V68l.1.6.6.2.5-.1v.9h-.8c-.5 0-.9 0-1.1-.4-.3-.3-.4-.7-.4-1.2v-4h-1.1v-.8h1.1v-1.5h1zM34.4 69.7h-1v-6.4h1v6.4zm-1.2-8c0-.2 0-.4.2-.5l.5-.2.4.2c.2.1.2.3.2.5 0 .1 0 .3-.2.4l-.4.2c-.2 0-.4 0-.5-.2a.6.6 0 01-.2-.4zM36.5 69.7v-5.5h-1v-.9h1v-.5c0-.7.2-1.2.6-1.6.4-.4 1-.6 1.7-.6.4 0 1 0 1.6.3l-.1 1c-.5-.3-1-.4-1.4-.4-.5 0-.8.2-1 .4-.2.2-.3.5-.3.9v.5h1.3v.9h-1.3v5.5h-1.1zm4.5 0h-1.1v-6.4h1v6.4zM45.3 68.9c.4 0 .7-.1 1-.4.3-.2.4-.5.5-.8h1c0 .3-.2.7-.4 1-.2.3-.5.6-1 .8-.3.2-.7.3-1.1.3-.9 0-1.6-.3-2-.9-.6-.6-.8-1.3-.8-2.3v-.2c0-.6 0-1.2.3-1.7a2.6 2.6 0 012.5-1.5c.7 0 1.3.2 1.7.7.5.4.7 1 .8 1.6h-1c0-.4-.2-.7-.5-1-.3-.3-.6-.4-1-.4-.6 0-1 .2-1.3.6-.3.4-.5 1-.5 1.7v.2c0 .8.2 1.3.5 1.7.3.4.7.6 1.3.6zM52.9 69.7l-.2-.7c-.5.5-1 .8-1.8.8-.6 0-1-.2-1.5-.6-.4-.3-.6-.8-.6-1.3 0-.7.3-1.2.8-1.5.5-.4 1.2-.6 2-.6h1.1v-.5l-.3-.9c-.2-.2-.6-.3-1-.3s-.7 0-1 .3c-.2.2-.4.4-.4.7h-1c0-.3 0-.6.3-1l.9-.6a3 3 0 011.2-.3c.8 0 1.3.2 1.8.6.4.3.6.8.6 1.5v2.9c0 .6 0 1 .2 1.4H53zm-1.8-.9c.3 0 .7 0 1-.2.3-.2.5-.4.6-.7v-1.3H52c-1.3 0-2 .4-2 1.2 0 .3.1.6.3.7.3.2.5.3.9.3zM57 61.8v1.5H58v.9H57V68l.1.6.5.2.6-.1v.9h-.9c-.5 0-.8 0-1-.4-.3-.3-.4-.7-.4-1.2v-4h-1.2v-.8H56v-1.5h1zM60.6 69.7h-1.1v-6.4h1v6.4zm-1.2-8c0-.2 0-.4.2-.5l.4-.2.5.2.2.5c0 .1 0 .3-.2.4l-.5.2c-.2 0-.3 0-.4-.2a.6.6 0 01-.2-.4zM62 66.4c0-.6.1-1.1.4-1.6.2-.5.6-.9 1-1.2.4-.2 1-.4 1.5-.4.8 0 1.5.3 2 1 .6.5.8 1.3.8 2.3 0 .7 0 1.2-.3 1.7a2.7 2.7 0 01-2.5 1.6c-.9 0-1.6-.3-2.1-1-.5-.5-.8-1.3-.8-2.3zm1 .2c0 .7.3 1.2.6 1.7.3.4.7.6 1.3.6.5 0 1-.2 1.3-.7.3-.4.5-1 .5-1.8 0-.7-.2-1.2-.5-1.6-.4-.5-.8-.7-1.3-.7-.6 0-1 .2-1.3.6a3 3 0 00-.5 1.9zM70.1 63.3v.8c.5-.6 1.2-.9 2-.9 1.3 0 2 .8 2 2.3v4.2H73v-4.2c0-.5-.1-.8-.3-1-.2-.2-.5-.4-1-.4l-.9.3c-.3.2-.5.5-.6.8v4.5H69v-6.4h1zM78.4 66.4c0-1 .2-1.7.7-2.3.4-.6 1-.9 1.8-.9.7 0 1.3.3 1.7.8v-3.3h1.1v9h-1V69c-.5.5-1 .8-1.8.8s-1.4-.3-1.8-1c-.5-.5-.7-1.3-.7-2.3zm1 .2c0 .7.2 1.2.5 1.6.3.5.7.7 1.2.7.7 0 1.2-.4 1.5-1V65c-.3-.6-.8-.9-1.5-.9-.5 0-.9.2-1.2.7a3 3 0 00-.4 1.8zM88 69.8c-.8 0-1.5-.3-2-.9-.6-.5-.9-1.3-.9-2.2v-.2c0-.6.1-1.2.4-1.7.2-.5.5-.9 1-1.2.4-.2.9-.4 1.4-.4.8 0 1.4.3 1.9.8.4.6.7 1.4.7 2.4v.4h-4.3c0 .6.2 1.1.5 1.5.4.4.8.6 1.4.6.3 0 .7 0 1-.2l.6-.7.7.6c-.5.8-1.3 1.2-2.4 1.2zM88 64c-.5 0-.8.2-1.1.5-.3.3-.5.8-.6 1.3h3.2c0-.6-.2-1-.5-1.3-.2-.3-.6-.5-1-.5zM95.4 68c0-.3-.1-.5-.3-.7l-1.2-.4-1.3-.4-.7-.6c-.2-.2-.2-.5-.2-.8 0-.5.2-1 .6-1.3.5-.4 1-.6 1.7-.6s1.3.2 1.7.6c.5.4.7.8.7 1.4h-1a1 1 0 00-.4-.8c-.3-.2-.6-.3-1-.3s-.7.1-1 .3l-.2.6c0 .3 0 .5.3.6.2.2.5.3 1 .4l1.4.4.7.6c.2.3.3.6.3 1 0 .5-.3 1-.7 1.3-.5.3-1 .5-1.8.5-.5 0-1-.1-1.3-.3l-1-.7-.2-1h1c0 .3.2.6.5.8.2.2.6.3 1 .3s.8 0 1-.3c.3-.1.4-.3.4-.6zM100.4 68.9c.4 0 .7-.1 1-.4.3-.2.5-.5.5-.8h1c0 .3-.1.7-.4 1-.2.3-.5.6-.9.8l-1.2.3c-.8 0-1.5-.3-2-.9-.5-.6-.8-1.3-.8-2.3v-.2c0-.6.1-1.2.3-1.7a2.6 2.6 0 012.5-1.5c.7 0 1.3.2 1.8.7.4.4.7 1 .7 1.6h-1c0-.4-.2-.7-.5-1-.2-.3-.6-.4-1-.4-.5 0-1 .2-1.3.6-.3.4-.4 1-.4 1.7v.2c0 .8.1 1.3.4 1.7.3.4.8.6 1.3.6zM107.2 64.3h-.6c-.7 0-1.1.3-1.4.9v4.5h-1v-6.4h1v.8c.4-.6.9-.9 1.5-.9l.5.1v1zM109.3 69.7h-1v-6.4h1v6.4zm-1.1-8l.1-.5.5-.2.5.2.2.5-.2.4-.5.2c-.2 0-.4 0-.5-.2a.6.6 0 01-.1-.4zM116.4 66.6c0 1-.2 1.7-.7 2.3-.4.6-1 .9-1.7.9-.8 0-1.4-.3-1.8-.8v3H111v-8.7h1v.7c.5-.5 1-.8 1.8-.8s1.4.3 1.8.9c.5.6.7 1.4.7 2.4zm-1-.2c0-.7-.2-1.2-.5-1.6-.3-.4-.7-.7-1.3-.7-.6 0-1.1.3-1.4 1v3c.3.5.8.8 1.4.8.6 0 1-.2 1.3-.6.3-.4.4-1 .4-1.9zM119.2 61.8v1.5h1.2v.9h-1.2V68c0 .3 0 .4.2.6l.5.2.5-.1v.9h-.8c-.5 0-.8 0-1-.4-.3-.3-.4-.7-.4-1.2v-4H117v-.8h1.2v-1.5h1zM122.8 69.7h-1v-6.4h1v6.4zm-1.1-8l.1-.5.5-.2.5.2.2.5-.2.4-.5.2c-.2 0-.4 0-.5-.2a.6.6 0 01-.1-.4zM124.3 66.4c0-.6.1-1.1.4-1.6.2-.5.5-.9 1-1.2.4-.2.9-.4 1.5-.4.8 0 1.5.3 2 1 .6.5.8 1.3.8 2.3 0 .7 0 1.2-.3 1.7a2.7 2.7 0 01-2.5 1.6c-.9 0-1.6-.3-2.1-1-.5-.5-.8-1.3-.8-2.3zm1 .2c0 .7.2 1.2.6 1.7.3.4.7.6 1.3.6.5 0 1-.2 1.3-.7.3-.4.5-1 .5-1.8 0-.7-.2-1.2-.5-1.6-.4-.5-.8-.7-1.3-.7-.6 0-1 .2-1.3.6a3 3 0 00-.5 1.9zM132.4 63.3v.8c.5-.6 1.2-.9 2-.9 1.3 0 2 .8 2 2.3v4.2h-1.1v-4.2c0-.5-.1-.8-.3-1a1.6 1.6 0 00-1.9 0c-.3.1-.5.4-.6.7v4.5h-1.1v-6.4h1z"/>
  <path fill="#222" d="M20.9 53.2h-1.2l-4.4-6.8v6.8h-1.1v-8.8h1.1l4.4 6.8v-6.8H21v8.8zM22.5 49.9c0-.7.1-1.2.4-1.8.2-.5.6-.9 1-1.1a2.7 2.7 0 013.7.5c.5.6.8 1.4.8 2.4v.1c0 .6-.1 1.2-.3 1.7a2.8 2.8 0 01-2.6 1.6c-1 0-1.6-.3-2.2-1-.5-.5-.8-1.3-.8-2.4zm1.1.1c0 .7.2 1.3.5 1.7.3.5.8.7 1.4.7.5 0 1-.2 1.3-.7.3-.4.5-1 .5-1.8 0-.7-.2-1.3-.5-1.8-.3-.4-.8-.6-1.4-.6-.5 0-1 .2-1.3.6a3 3 0 00-.5 1.9zM31.3 45v1.7h1.2v.8h-1.2v4c0 .3 0 .5.2.7l.5.2.6-.1v.9l-.9.1c-.5 0-.9-.1-1.1-.4a2 2 0 01-.4-1.3v-4H29v-1h1.2v-1.5h1.1zM35 53.2h-1v-6.5h1v6.5zm-1.2-8.3l.2-.4.5-.2c.2 0 .4 0 .5.2l.2.4c0 .2 0 .4-.2.5l-.5.2c-.2 0-.4 0-.5-.2a.6.6 0 01-.2-.5zM37.2 53.2v-5.7h-1v-.8h1V46c0-.7.2-1.3.6-1.7.4-.4 1-.6 1.8-.6.4 0 1 .1 1.7.4l-.2 1c-.5-.3-1-.4-1.4-.4-.5 0-.8.1-1 .3-.3.2-.4.6-.4 1v.6h1.4v.8h-1.4v5.7h-1.1zm4.6 0h-1v-6.5h1v6.5zM46.3 52.4c.4 0 .7-.1 1-.4.3-.2.5-.5.5-.9h1c0 .4 0 .8-.3 1.1l-1 .8-1.2.3c-1 0-1.6-.3-2.1-.9-.6-.6-.8-1.4-.8-2.4v-.2c0-.6 0-1.2.3-1.7a2.7 2.7 0 012.6-1.6c.7 0 1.3.3 1.8.7.5.4.7 1 .8 1.7h-1c-.1-.4-.3-.8-.6-1-.3-.3-.6-.4-1-.4-.6 0-1 .2-1.3.6-.4.4-.5 1-.5 1.7v.3c0 .7.1 1.3.4 1.7.4.4.8.6 1.4.6zM54.1 53.2l-.1-.7c-.5.5-1.2.8-1.9.8-.6 0-1.1-.2-1.6-.5-.4-.4-.6-.9-.6-1.4 0-.7.3-1.2.8-1.6.5-.4 1.2-.6 2.2-.6h1v-.5c0-.4 0-.7-.3-1-.2-.1-.6-.3-1-.3s-.7.1-1 .3c-.3.2-.4.5-.4.8H50c0-.4 0-.7.3-1 .2-.3.6-.5 1-.7.3-.2.8-.3 1.2-.3.8 0 1.4.2 1.8.6.4.4.7.9.7 1.6v3c0 .6 0 1 .2 1.4h-1.2zm-1.8-.9c.3 0 .7 0 1-.2l.7-.7V50h-1c-1.3 0-2 .4-2 1.2 0 .4.2.6.4.8.2.2.5.3.9.3zM58.3 45v1.7h1.3v.8h-1.3v4c0 .3 0 .5.2.7l.5.2.6-.1v.9l-.9.1c-.5 0-.8-.1-1.1-.4a2 2 0 01-.4-1.3v-4H56v-1h1.2v-1.5h1.1zM62 53.2h-1v-6.5h1v6.5zM61 44.9l.1-.4.5-.2c.2 0 .4 0 .5.2l.2.4c0 .2 0 .4-.2.5l-.5.2c-.2 0-.4 0-.5-.2a.6.6 0 01-.1-.5zM63.5 49.9c0-.7.2-1.2.4-1.8a2.8 2.8 0 012.6-1.6c.9 0 1.6.4 2.2 1 .5.6.8 1.4.8 2.4v.1c0 .6-.1 1.2-.4 1.7a2.8 2.8 0 01-2.6 1.6c-.9 0-1.6-.3-2.1-1-.6-.5-.9-1.3-.9-2.4zm1.2.1c0 .7.1 1.3.5 1.7.3.5.8.7 1.3.7.6 0 1-.2 1.4-.7.3-.4.5-1 .5-1.8 0-.7-.2-1.3-.5-1.8-.4-.4-.8-.6-1.4-.6-.5 0-1 .2-1.3.6a3 3 0 00-.5 1.9zM72 46.7v.8c.5-.6 1.1-1 2-1 1.3 0 2 .8 2 2.4v4.3h-1.1v-4.3c0-.5-.1-.8-.3-1-.2-.3-.6-.4-1-.4s-.7 0-1 .3a2 2 0 00-.6.7v4.7h-1.1v-6.5h1zM82.2 45v1.7h1.3v.8h-1.3v4l.2.7.6.2.5-.1v.9l-.9.1c-.5 0-.8-.1-1-.4a2 2 0 01-.5-1.3v-4H80v-1h1.2v-1.5h1.1zM86 53.2h-1.1v-6.5h1v6.5zm-1.2-8.3l.1-.4.5-.2c.2 0 .4 0 .5.2l.2.4c0 .2 0 .4-.2.5l-.5.2c-.2 0-.4 0-.5-.2a.6.6 0 01-.1-.5zM89.3 45v1.7h1.2v.8h-1.2v4l.1.7.6.2.5-.1v.9l-.8.1c-.5 0-1-.1-1.2-.4a2 2 0 01-.4-1.3v-4H87v-1H88v-1.5h1.2zM91.9 43.9H93v9.2h-1.1zM97.5 53.3c-1 0-1.6-.3-2.2-.9-.5-.5-.8-1.3-.8-2.3V50c0-.6.1-1.2.4-1.7.2-.5.6-1 1-1.2.4-.3 1-.5 1.4-.5.9 0 1.5.3 2 .9.5.5.7 1.3.7 2.4v.4h-4.4c0 .7.2 1.2.6 1.6.3.4.8.6 1.3.6.4 0 .8 0 1-.2l.8-.7.6.5c-.5.9-1.3 1.3-2.4 1.3zm-.2-5.8c-.4 0-.8.1-1 .5-.4.3-.6.7-.7 1.3H99c0-.6-.2-1-.5-1.4-.2-.3-.6-.4-1-.4z"/>
  <path fill="transparent" d="M13 14.2h16.2v16.2H13z"/>
</svg>
