<?xml version="1.0" encoding="UTF-8" standalone="no"?><!DOCTYPE svg PUBLIC "-//W3C//DTD SVG 1.1//EN" "http://www.w3.org/Graphics/SVG/1.1/DTD/svg11.dtd"><svg width="100%" height="100%" viewBox="0 0 108 108" version="1.1" xmlns="http://www.w3.org/2000/svg" xmlns:xlink="http://www.w3.org/1999/xlink" xml:space="preserve" xmlns:serif="http://www.serif.com/" style="fill-rule:evenodd;clip-rule:evenodd;stroke-linejoin:round;stroke-miterlimit:2;"><rect x="0" y="0" width="108" height="108" style="fill:#fbefd2;"/><path d="M33.797,92c-0.001,0 -0.002,0 -0.003,0c-2.903,0 -5.292,-2.389 -5.292,-5.292c0,-0.246 0.017,-0.492 0.051,-0.736l2.93,-20.976l-14.081,-15.135c-0.912,-0.979 -1.419,-2.268 -1.419,-3.605c0,-2.561 1.859,-4.773 4.382,-5.214l19.633,-3.511l9.266,-18.6c0.894,-1.793 2.733,-2.931 4.737,-2.931c2.003,0 3.842,1.138 4.736,2.931l9.271,18.6l19.648,3.507c2.513,0.449 4.361,2.656 4.361,5.209c0,1.339 -0.509,2.63 -1.422,3.609l-14.077,15.145l2.93,20.971c0.034,0.243 0.051,0.489 0.051,0.735c0,2.903 -2.389,5.292 -5.292,5.292c-0.855,0 -1.698,-0.208 -2.456,-0.605l-17.748,-9.252l-17.767,9.271c-0.753,0.39 -1.59,0.591 -2.439,0.587Z" style="fill:url(#_Linear1);fill-rule:nonzero;"/><defs><linearGradient id="_Linear1" x1="0" y1="0" x2="1" y2="0" gradientUnits="userSpaceOnUse" gradientTransform="matrix(76.0332,76,-75.9668,76,15.9834,16)"><stop offset="0" style="stop-color:#10347a;stop-opacity:1"/><stop offset="1" style="stop-color:#071736;stop-opacity:1"/></linearGradient></defs></svg>