<?xml version="1.0" encoding="UTF-8" standalone="no"?><!DOCTYPE svg PUBLIC "-//W3C//DTD SVG 1.1//EN" "http://www.w3.org/Graphics/SVG/1.1/DTD/svg11.dtd"><svg width="100%" height="100%" viewBox="0 0 108 108" version="1.1" xmlns="http://www.w3.org/2000/svg" xmlns:xlink="http://www.w3.org/1999/xlink" xml:space="preserve" xmlns:serif="http://www.serif.com/" style="fill-rule:evenodd;clip-rule:evenodd;stroke-linejoin:round;stroke-miterlimit:2;"><path d="M31.139,97c-0.001,0 -0.003,0 -0.004,0c-3.285,0 -5.988,-2.703 -5.988,-5.988c0,-0.279 0.019,-0.557 0.058,-0.833l3.315,-23.736l-15.934,-17.127c-1.031,-1.107 -1.605,-2.566 -1.605,-4.079c0,-2.898 2.104,-5.401 4.958,-5.899l22.217,-3.975l10.485,-21.046c1.012,-2.029 3.092,-3.317 5.36,-3.317c2.267,0 4.348,1.288 5.359,3.317l10.491,21.046l22.233,3.969c2.844,0.508 4.935,3.006 4.935,5.895c0,1.515 -0.575,2.976 -1.609,4.084l-15.929,17.137l3.316,23.731c0.038,0.275 0.058,0.553 0.058,0.831c0,3.285 -2.704,5.988 -5.989,5.988c-0.968,0 -1.922,-0.234 -2.78,-0.684l-20.082,-10.469l-20.105,10.491c-0.853,0.441 -1.8,0.668 -2.76,0.664Z" style="fill:url(#_Linear1);fill-rule:nonzero;"/><defs><linearGradient id="_Linear1" x1="0" y1="0" x2="1" y2="0" gradientUnits="userSpaceOnUse" gradientTransform="matrix(86.0376,86,-85.9625,86,10.9812,11)"><stop offset="0" style="stop-color:#10347a;stop-opacity:1"/><stop offset="1" style="stop-color:#071736;stop-opacity:1"/></linearGradient></defs></svg>