<?xml version="1.0" encoding="UTF-8" standalone="no"?><!DOCTYPE svg PUBLIC "-//W3C//DTD SVG 1.1//EN" "http://www.w3.org/Graphics/SVG/1.1/DTD/svg11.dtd"><svg width="100%" height="100%" viewBox="0 0 108 108" version="1.1" xmlns="http://www.w3.org/2000/svg" xmlns:xlink="http://www.w3.org/1999/xlink" xml:space="preserve" xmlns:serif="http://www.serif.com/" style="fill-rule:evenodd;clip-rule:evenodd;stroke-linejoin:round;stroke-miterlimit:2;"><path d="M47.23,107.453c-1.021,-0.729 -1.167,-1.312 -0.292,-1.312c0.438,0 1.021,-0.146 1.458,-0.437c0.875,-0.584 1.312,-1.458 5.832,-11.227c9.525,-21.133 19.246,-42.178 29.16,-63.13c0.291,-0.875 0.729,-0.875 1.458,0c1.02,1.02 0.729,1.458 -4.374,12.684c-4.811,10.206 -9.623,20.266 -14.143,30.472l-9.185,19.683c-1.745,4.681 -4.046,9.135 -6.852,13.267c-0.875,0.729 -2.187,0.729 -2.916,0l-0.146,0Zm-3.645,-3.645l-1.166,-1.312c-0.292,-0.875 -0.584,0.438 6.269,-27.264l2.916,-12.101c0.875,-4.083 1.749,-7.436 1.458,-7.582c0,0 -4.666,0.875 -10.206,2.479l-11.372,2.478c-0.875,-0.291 -2.187,-1.312 -1.896,-1.604l24.057,-5.977c0.292,-0.292 0.437,-0.583 0.583,-1.312l0,-1.021l-12.976,2.916c-4.464,1.289 -8.99,2.359 -13.559,3.207c-0.875,-0.145 -2.187,-1.457 -2.187,-2.041l12.539,-52.487c0.145,-0.583 0.583,-1.166 1.02,-1.604l0.875,-0.583l11.081,0c9.331,0 11.08,0 11.663,0.292c0.875,0.437 1.458,1.166 1.458,2.041l-2.915,8.31l-7.728,21.433c0,0.583 2.479,0 2.77,-0.584l9.04,-24.785c1.02,-2.916 1.312,-3.354 2.187,-2.187c0.291,0.437 0.583,0.875 0.583,1.458l-2.479,7.144c-2.332,5.832 -4.373,11.664 -6.415,17.496c0,0.291 0,0.291 0.292,0.291l9.768,-2.333c6.853,-1.603 9.769,-2.332 10.206,-2.187c1.167,0.292 2.187,1.458 2.187,2.479c0,0.583 -1.458,3.791 -4.957,11.372l-14.142,30.326l-9.186,19.829c-1.691,4.75 -3.994,9.26 -6.852,13.413c-0.875,0.583 -2.041,0.583 -2.916,0Z" style="fill:#7dc36b;fill-rule:nonzero;"/></svg>