<?xml version="1.0" encoding="UTF-8" standalone="no"?><!DOCTYPE svg PUBLIC "-//W3C//DTD SVG 1.1//EN" "http://www.w3.org/Graphics/SVG/1.1/DTD/svg11.dtd"><svg width="100%" height="100%" viewBox="0 0 1024 1024" version="1.1" xmlns="http://www.w3.org/2000/svg" xmlns:xlink="http://www.w3.org/1999/xlink" xml:space="preserve" xmlns:serif="http://www.serif.com/" style="fill-rule:evenodd;clip-rule:evenodd;stroke-linejoin:round;stroke-miterlimit:2;"><path d="M1024,150.069c0,-82.826 -67.243,-150.069 -150.069,-150.069l-723.862,0c-82.826,0 -150.069,67.243 -150.069,150.069l0,723.862c0,82.826 67.243,150.069 150.069,150.069l723.862,0c82.826,0 150.069,-67.243 150.069,-150.069l0,-723.862Zm-42.318,0l0,723.862c0,59.47 -48.281,107.751 -107.751,107.751l-723.862,0c-59.47,0 -107.751,-48.281 -107.751,-107.751l0,-723.862c0,-59.47 48.281,-107.751 107.751,-107.751l723.862,0c59.47,0 107.751,48.281 107.751,107.751Z" style="fill:#101244;"/><path d="M873.613,191.626c-11.587,-77.385 -83.819,-130.804 -161.204,-119.217l-520.783,77.978c-77.385,11.587 -130.804,83.819 -119.217,161.204l77.978,520.783c11.587,77.385 83.819,130.804 161.204,119.217l520.783,-77.978c77.385,-11.587 130.804,-83.819 119.217,-161.204l-77.978,-520.783Zm-21.825,3.268l77.978,520.783c9.782,65.338 -35.321,126.328 -100.66,136.111l-520.783,77.978c-65.338,9.782 -126.328,-35.321 -136.111,-100.66l-77.978,-520.783c-9.782,-65.338 35.321,-126.328 100.66,-136.111l520.783,-77.978c65.338,-9.782 126.328,35.321 136.111,100.66Z" style="fill:#101244;fill-opacity:0.25;"/><path d="M956.714,151.979c-5.413,-77.423 -72.667,-135.885 -150.09,-130.47l-654.645,45.777c-77.423,5.413 -135.885,72.667 -130.47,150.09l45.777,654.645c5.413,77.423 72.667,135.885 150.09,130.47l654.645,-45.777c77.423,-5.413 135.885,-72.667 130.47,-150.09l-45.777,-654.645Zm-22.016,1.54l45.778,654.645c4.564,65.273 -44.724,121.971 -109.995,126.534l-654.645,45.778c-65.273,4.564 -121.971,-44.724 -126.534,-109.995l-45.778,-654.645c-4.564,-65.273 44.724,-121.971 109.995,-126.534l654.645,-45.778c65.273,-4.564 121.971,44.724 126.534,109.995Z" style="fill:#101244;fill-opacity:0.25;"/><path d="M783.505,221.163c-20.768,-72.399 -96.406,-114.317 -168.807,-93.55l-393.535,112.882c-72.399,20.768 -114.317,96.406 -93.55,168.807l112.882,393.535c20.768,72.399 96.406,114.317 168.807,93.55l393.535,-112.882c72.399,-20.768 114.317,-96.406 93.55,-168.807l-112.882,-393.535Zm-21.213,6.086l112.882,393.535c17.41,60.692 -17.731,124.098 -78.423,141.508l-393.535,112.882c-60.692,17.41 -124.098,-17.731 -141.508,-78.423l-112.882,-393.535c-17.41,-60.692 17.731,-124.098 78.423,-141.508l393.535,-112.882c60.692,-17.41 124.098,17.731 141.508,78.423Z" style="fill:#101244;fill-opacity:0.25;"/><path d="M707.432,274.037c-30.962,-69.414 -112.453,-100.63 -181.864,-69.668l-251.531,112.199c-69.414,30.962 -100.63,112.453 -69.668,181.864l112.199,251.531c30.962,69.414 112.453,100.63 181.864,69.668l251.531,-112.199c69.414,-30.962 100.63,-112.453 69.668,-181.864l-112.199,-251.531Zm-20.155,8.99l112.199,251.531c26,58.289 -0.214,126.72 -58.503,152.719l-251.531,112.199c-58.289,26 -126.72,-0.214 -152.719,-58.503l-112.199,-251.531c-26,-58.289 0.214,-126.72 58.503,-152.719l251.531,-112.199c58.289,-26 126.72,0.214 152.719,58.503Z" style="fill:#101244;fill-opacity:0.25;"/><path d="M651.326,335.106c-39.631,-63.479 -123.345,-82.842 -186.824,-43.211l-129.396,80.779c-63.479,39.631 -82.842,123.345 -43.211,186.824l80.779,129.396c39.631,63.479 123.345,82.842 186.824,43.211l129.396,-80.779c63.479,-39.631 82.842,-123.345 43.211,-186.824l-80.779,-129.396Zm-18.722,11.687l80.781,129.395c33.18,53.149 16.969,123.237 -36.178,156.416l-129.395,80.781c-53.149,33.18 -123.237,16.969 -156.416,-36.178l-80.781,-129.395c-33.18,-53.149 -16.969,-123.237 36.178,-156.416l129.395,-80.781c53.149,-33.18 123.237,-16.969 156.416,36.178Z" style="fill:#101244;fill-opacity:0.25;"/><path d="M512,383.117c71.133,0 128.883,57.75 128.883,128.883c0,71.133 -57.75,128.883 -128.883,128.883c-71.133,0 -128.883,-57.75 -128.883,-128.883c0,-71.133 57.75,-128.883 128.883,-128.883Zm0,44.138c46.772,0 84.745,37.973 84.745,84.745c0,46.772 -37.973,84.745 -84.745,84.745c-46.772,0 -84.745,-37.973 -84.745,-84.745c0,-46.772 37.973,-84.745 84.745,-84.745Z" style="fill:#101244;"/></svg>