<?xml version="1.0" encoding="UTF-8" standalone="no"?><!DOCTYPE svg PUBLIC "-//W3C//DTD SVG 1.1//EN" "http://www.w3.org/Graphics/SVG/1.1/DTD/svg11.dtd"><svg width="100%" height="100%" viewBox="0 0 1024 1024" version="1.1" xmlns="http://www.w3.org/2000/svg" xmlns:xlink="http://www.w3.org/1999/xlink" xml:space="preserve" xmlns:serif="http://www.serif.com/" style="fill-rule:evenodd;clip-rule:evenodd;stroke-linejoin:round;stroke-miterlimit:2;"><path d="M717.617,626.316c11.592,23.098 34.272,39.639 61.095,42.68l-2.096,0.88l-6.081,3.555l-4.302,4.992l-11.957,5.004l-16.319,0.967l-4.655,2.346l-1.728,4.146l-4.026,4.932l-10.505,4.195l-4.594,4.364l-8.172,3.844l-2.297,3.785l-8.147,-1.657l-8.172,1.487l-1.73,4.933l-15.728,2.405l-2.936,-1.438l-2.878,2.938l-2.635,0.567l-2.297,-1.439l-6.142,2.068l-4.931,-0.858l-19.524,-7.81l-5.246,0.338l-4.702,-0.857l-3.157,1.776l-1.438,2.297l-3.215,-0.858l-10.747,2.115l-5.561,4.715l-2.586,3.215l-7.52,8.511l-11.037,6.77l-6.371,9.369l-8.148,6.189l-12.814,4.437l-5.222,5.271l-13.105,2.066l-4.654,5.005l-5.803,4.993l-7.228,7.931l-4.933,8.195l-5.246,2.938l-5.223,1.196l-5.512,-0.29l-2.925,1.778l-5.513,0.29l-9.949,5.923l0.919,5.513l-5.223,4.122l-2.636,0l-4.363,2.346l-3.155,5.862l-4.376,6.432l-3.784,0.628l-3.156,3.808l-1.667,23.997l-2.926,5.221l-10.154,7.641l-1.149,3.494l0,6.781l-4.932,3.506l0.568,2.346l-5.175,7.591l-0.857,4.993l-2.66,2.925l0.568,2.297l-3.155,1.487l-4.993,-1.438l-4.654,0.931l0.29,2.297l-2.297,9.066l-2.587,2.067l-2.357,-0.58l-0.29,5.524l-4.666,2.346l-5.223,3.264l-4.933,7.882l-3.504,-0.859l-3.446,3.844l-7.882,2.926l1.439,-2.926l-2.358,-5.282l0.29,-8.172l-7.579,-7.859l-7.302,-2.006l-8.776,-7.301l-9.321,-4.364l-7.289,-1.439l-5.851,-3.784l-3.227,-4.653l-14.29,-6.663l-7.882,-9.368l-7.289,-3.506l-2.298,1.487l-6.732,-2.586l-2.636,0.568l-5.803,-3.506l-4.702,0.567l-4.956,-2.295l-4.075,1.196l-2.296,-2.926l-7,-3.215l-0.919,-10.518l-4.097,-7.857l-2.636,0l-3.783,-9.079l-5.284,-1.439l-5.862,-21.59l1.438,-10.566l-0.858,-2.635l1.728,-2.587l0,-2.926l2.297,-1.22l0,-4.655l-2.635,0.859l1.439,-7.58l4.074,-7.931l-1.15,-2.925l1.73,-5.56l0.12,-2.478l0.448,-8.33l2.297,-4.702l-0.629,-10.517l1.777,-4.994l-0.919,-5.814l0.569,-4.992l3.784,-7.581l0.229,-9.997l1.148,-2.297l0,-11.436l-1.487,-6.999l-0.29,-2.369l2.926,-5.271l0.29,-3.216l-0.628,-6.444l-1.303,-2.783c24.728,-4.345 45.379,-20.27 56.246,-41.997l422.34,0Zm-539.696,-269.687l0.203,-0.227l4.304,-5.864l2.369,-0.628l2.877,-2.636l6.371,-2.344l7.289,-0.29l2.298,1.728l10.227,-1.511l-0.919,-7.29l0.568,-6.709l5.223,-2.079l0.858,-3.216l4.655,-2.406l0,-3.215l3.155,-4.099l3.506,-0.29l-0.86,-4.412l1.73,-3.783l2.877,-1.209l0.29,-6.444l2.344,-1.776l0.521,-3.785l4.074,-0.29l-0.29,-5.295l5.524,1.149l-0.581,-4.075l3.785,-3.844l1.438,-4.364l6.081,-6.213l5.803,-0.58l3.216,3.506l0.29,-0.29l0.858,-5.852l1.729,-5.863l2.006,-8.208l-0.339,-5.585l-0.29,-2.068l2.007,-4.992l-1.148,-5.513l-1.777,-2.659l-5.803,-9.635l-3.784,-6.154l-5.295,-3.505l-1.438,-6.431l-4.932,-2.345l-2.636,-6.734l-5.862,-9.925l-2.588,0l-2.635,-2.079l-0.919,-10.215l-6.431,-19.293l1.438,-5.924l-2.659,-13.732l-2.357,-1.15l-0.859,-2.345l0.859,-10.565l2.296,-7.629l1.101,-15.509l9.586,-9.417l7.254,-6.154l5.221,-2.695l4.933,-0.581l2.297,1.439l4.074,-1.439l5.222,-0.049l0.194,0.255l3.517,4.993l5.223,0.29l2.067,2.344l9.586,1.101l0,2.636l1.439,1.221l0.858,0.568l11.665,4.363l2.297,-2.066l8.149,4.654l5.814,1.147l0.918,5.562l1.15,0.567l2.007,1.198l6.999,1.148l1.148,3.228l-0.858,6.999l2.066,2.346l6.106,4.073l3.783,2.369l4.654,-0.639l9.067,8.788l5.803,-0.048l4.364,3.215l6.661,4.654l5.004,2.345l0.859,2.939l4.932,1.728l2.635,4.992l3.216,2.007l13.673,2.587l0.567,3.554l2.297,0.568l1.777,5.246l4.075,2.926l3.783,2.636l11.037,-5.066l5.513,-2.925l9.877,2.297l4.666,3.783l5.561,-0.29l5.512,2.938l5.512,4.074l1.148,-0.29l4.099,-0.629l2.635,2.068l2.297,-1.488l2.926,3.216l6.371,1.729l5.862,3.216l7.52,-1.487l7.857,4.653l4.933,-0.338l4.098,4.123l4.993,2.876l6.66,2.346l1.777,0.859l2.007,0.567l1.511,3.229l3.155,2.925l8.729,2.296l2.925,3.506l1.148,0.569l1.488,0.858l2.659,2.066l10.154,2.588l4.933,-0.29l3.216,2.877l0.29,0.29l2.007,0.919l9.03,2.297l3.844,6.734l4.303,-0.339l10.807,6.14l4.075,1.149l1.438,0.291l3.506,0.29l8.45,5.221l4.993,7.302l5.802,2.007l4.716,4.993l6.37,1.729l10.505,5.512l4.666,7.882l2.067,0.568l12.802,6.081l12.874,14.591l5.513,2.635l2.661,-1.486l3.214,10.215l2.345,0.568l5.513,5.294l2.926,8.777l0,0.568l5.295,2.297l2.877,3.784l4.992,1.438l0.859,5.006l3.784,3.783l1.511,5.27l-1.149,2.297l1.777,7.072l-0.493,1.062l-542.799,0Z" style="fill-rule:nonzero;"/><path d="M787.641,535.968c-30.524,0 -55.197,24.674 -55.197,55.197c0,30.525 24.673,55.198 55.197,55.198c30.524,0 55.089,-24.673 55.089,-55.198c0,-30.523 -24.565,-55.197 -55.089,-55.197Z" style="fill-rule:nonzero;"/><path d="M225.331,535.968c-30.523,0 -55.197,24.674 -55.197,55.197c0,30.525 24.674,55.198 55.197,55.198c30.525,0 55.089,-24.673 55.089,-55.198c0,-30.523 -24.564,-55.197 -55.089,-55.197Z" style="fill-rule:nonzero;"/><path d="M15.633,516.421l311.099,0l0,24.878c0,14.7 11.968,26.765 26.656,26.765l21.325,0c14.7,0 26.764,-12.065 26.764,-26.765l0,-24.878l459.023,0l0,24.878c0,14.7 11.968,26.765 26.656,26.765l21.433,0c14.7,0 26.657,-12.065 26.657,-26.765l0,-113.84c0,-14.7 -11.968,-26.656 -26.657,-26.656l-21.433,0c-14.7,0 -26.656,11.968 -26.656,26.656l0,81.854l-459.023,0l0,-81.854c0,-14.7 -12.064,-26.656 -26.764,-26.656l-21.325,0c-14.701,0 -26.656,11.968 -26.656,26.656l0,81.854l-310.585,0l-0.459,6.271l2.66,-40.035l43.796,0c0.543,-0.061 1.073,-0.203 1.572,-0.424c1.066,-0.47 1.95,-1.277 2.514,-2.296l21.434,-35.542c0.483,-0.82 0.738,-1.756 0.738,-2.708c0,-2.931 -2.413,-5.343 -5.343,-5.343c-0.032,0 -0.066,0 -0.098,0.001l-55.415,0l29.581,-47.352c0.728,-1.259 1.938,-2.167 3.35,-2.514l0.011,0c0.382,-0.043 0.767,-0.043 1.149,0l932.36,0c0.033,-0.002 0.068,-0.002 0.101,-0.002c2.932,0 5.343,2.413 5.343,5.343c0,0.8 -0.178,1.59 -0.524,2.31l-27.393,61.569l-1.366,-2.201c-0.993,-1.984 -3.123,-3.155 -5.331,-2.925c-2.681,0.323 -4.717,2.631 -4.703,5.332l0,78.298c0.007,2.922 2.41,5.324 5.332,5.332l42.757,0c2.403,-0.019 4.512,-1.655 5.125,-3.978c0.003,0.069 0.003,0.137 0,0.205l-21.324,71.192c-0.694,2.237 -2.783,3.769 -5.126,3.759l-134.644,0c0.774,-4.026 1.148,-8.196 1.148,-12.44c0,-36.301 -29.556,-65.859 -65.859,-65.859c-36.303,0 -65.861,29.558 -65.861,65.859c0,4.244 0.484,8.414 1.258,12.44l-432.997,0c0.774,-4.026 1.149,-8.196 1.149,-12.44c0,-36.301 -29.448,-65.859 -65.751,-65.859c-36.303,0 -65.859,29.558 -65.859,65.859c0,4.244 0.374,8.414 1.148,12.44l-113.321,0c-1.882,0 -3.631,-0.994 -4.593,-2.612l-28.541,-49.866c-0.525,-0.954 -0.744,-2.048 -0.63,-3.13l2.098,-31.576Zm337.755,-104.955l21.325,0c8.969,0 16.102,7.035 16.102,15.993l0,113.84c0,8.97 -7.133,15.994 -16.102,15.994l-21.325,0c-8.971,0 -15.994,-7.036 -15.994,-15.994l0,-113.84c0,-8.969 7.036,-15.993 15.994,-15.993Zm533.768,0l21.433,0c8.97,0 15.994,7.035 15.994,15.993l0,113.84c0,8.97 -7.036,15.994 -15.994,15.994l-21.433,0c-8.97,0 -15.993,-7.036 -15.993,-15.994l0,-113.84c0,-8.969 7.035,-15.993 15.993,-15.993Zm126.35,115.629c-0.002,-0.251 -0.021,-0.501 -0.059,-0.749c0.038,0.248 0.057,0.498 0.059,0.749c0.001,0.275 -0.018,0.55 -0.059,0.822c0.039,-0.261 0.059,-0.523 0.059,-0.785l0,-0.037Zm-355.07,-97.858c-1.505,0.317 -2.8,1.269 -3.554,2.611l-21.433,35.649c-0.483,0.822 -0.738,1.757 -0.738,2.709c0,2.932 2.413,5.344 5.343,5.344c0.033,0 0.065,-0.001 0.097,-0.001l185.031,0c1.943,0.017 3.749,-1.028 4.702,-2.72l21.325,-35.542c0.483,-0.82 0.738,-1.756 0.738,-2.708c0,-2.931 -2.412,-5.343 -5.343,-5.343c-0.032,0 -0.065,0 -0.097,0.001l-185.031,0c-0.346,-0.035 -0.694,-0.035 -1.04,0Zm-540.985,0c-1.505,0.317 -2.801,1.269 -3.554,2.611l-21.325,35.649c-0.482,0.821 -0.737,1.757 -0.737,2.709c0,2.925 2.405,5.335 5.331,5.343l185.139,0c1.905,-0.022 3.66,-1.061 4.595,-2.72l21.433,-35.542c0.483,-0.82 0.737,-1.756 0.737,-2.708c0,-2.931 -2.412,-5.343 -5.343,-5.343c-0.032,0 -0.064,0 -0.097,0.001l-185.031,0c-0.382,-0.042 -0.767,-0.042 -1.148,0Zm320.304,0c-1.505,0.317 -2.8,1.269 -3.554,2.611l-21.325,35.649c-0.482,0.821 -0.736,1.757 -0.736,2.709c0,2.925 2.404,5.335 5.33,5.343l185.141,0c1.904,-0.022 3.658,-1.061 4.593,-2.72l21.325,-35.542c0.482,-0.82 0.736,-1.755 0.736,-2.707c0,-2.927 -2.404,-5.337 -5.331,-5.343l-185.031,0c-0.38,-0.042 -0.766,-0.042 -1.148,0Z" style="fill-rule:nonzero;"/></svg>