<?xml version="1.0" encoding="UTF-8" standalone="no"?><!DOCTYPE svg PUBLIC "-//W3C//DTD SVG 1.1//EN" "http://www.w3.org/Graphics/SVG/1.1/DTD/svg11.dtd"><svg width="100%" height="100%" viewBox="0 0 1024 1024" version="1.1" xmlns="http://www.w3.org/2000/svg" xmlns:xlink="http://www.w3.org/1999/xlink" xml:space="preserve" xmlns:serif="http://www.serif.com/" style="fill-rule:evenodd;clip-rule:evenodd;stroke-linejoin:round;stroke-miterlimit:2;"><path d="M678.154,604.39c9.351,18.632 27.646,31.975 49.283,34.428l-1.691,0.71l-4.905,2.867l-3.471,4.027l-9.645,4.037l-13.164,0.78l-3.755,1.892l-1.394,3.345l-3.247,3.978l-8.474,3.384l-3.706,3.52l-6.592,3.101l-1.853,3.053l-6.572,-1.336l-6.592,1.199l-1.395,3.979l-12.687,1.94l-2.369,-1.16l-2.321,2.37l-2.126,0.458l-1.853,-1.161l-4.954,1.668l-3.978,-0.692l-15.749,-6.3l-4.232,0.273l-3.793,-0.692l-2.546,1.433l-1.16,1.853l-2.594,-0.692l-8.669,1.706l-4.486,3.803l-2.086,2.594l-6.066,6.865l-8.903,5.461l-5.139,7.558l-6.573,4.992l-10.336,3.579l-4.213,4.252l-10.571,1.667l-3.754,4.037l-4.681,4.028l-5.831,6.397l-3.979,6.611l-4.232,2.37l-4.213,0.965l-4.446,-0.234l-2.36,1.434l-4.447,0.234l-8.025,4.778l0.741,4.447l-4.213,3.325l-2.126,0l-3.52,1.892l-2.545,4.729l-3.53,5.188l-3.052,0.507l-2.546,3.072l-1.345,19.357l-2.36,4.212l-8.191,6.163l-0.927,2.819l0,5.47l-3.978,2.828l0.458,1.892l-4.174,6.124l-0.692,4.027l-2.145,2.36l0.458,1.853l-2.545,1.199l-4.028,-1.16l-3.754,0.751l0.234,1.853l-1.853,7.313l-2.087,1.668l-1.901,-0.468l-0.234,4.456l-3.764,1.892l-4.213,2.633l-3.979,6.358l-2.827,-0.693l-2.78,3.101l-6.358,2.36l1.161,-2.36l-1.902,-4.261l0.234,-6.592l-6.114,-6.339l-5.89,-1.618l-7.079,-5.89l-7.519,-3.52l-5.88,-1.161l-4.72,-3.052l-2.603,-3.754l-11.527,-5.374l-6.358,-7.557l-5.88,-2.828l-1.853,1.199l-5.431,-2.086l-2.126,0.458l-4.681,-2.828l-3.793,0.458l-3.998,-1.852l-3.287,0.965l-1.852,-2.36l-5.647,-2.594l-0.741,-8.484l-3.305,-6.338l-2.126,0l-3.052,-7.324l-4.262,-1.16l-4.729,-17.416l1.16,-8.523l-0.692,-2.126l1.394,-2.087l0,-2.36l1.853,-0.984l0,-3.755l-2.126,0.693l1.161,-6.115l3.286,-6.397l-0.927,-2.36l1.395,-4.485l0.097,-1.999l0.361,-6.719l1.853,-3.793l-0.507,-8.484l1.433,-4.028l-0.741,-4.69l0.459,-4.027l3.052,-6.115l0.185,-8.064l0.926,-1.853l0,-9.225l-1.199,-5.646l-0.234,-1.911l2.36,-4.252l0.234,-2.594l-0.507,-5.198l-1.051,-2.245c19.947,-3.505 36.606,-16.351 45.372,-33.877l340.684,0Zm-435.351,-217.546l0.164,-0.183l3.472,-4.73l1.911,-0.507l2.321,-2.126l5.139,-1.891l5.88,-0.234l1.853,1.394l8.25,-1.219l-0.741,-5.88l0.458,-5.412l4.213,-1.677l0.692,-2.594l3.755,-1.941l0,-2.594l2.545,-3.306l2.828,-0.234l-0.693,-3.559l1.395,-3.052l2.321,-0.975l0.234,-5.198l1.891,-1.433l0.42,-3.053l3.286,-0.234l-0.234,-4.271l4.456,0.927l-0.468,-3.287l3.053,-3.101l1.16,-3.52l4.905,-5.012l4.681,-0.468l2.594,2.828l0.234,-0.234l0.692,-4.72l1.395,-4.73l1.618,-6.621l-0.273,-4.505l-0.234,-1.668l1.619,-4.027l-0.926,-4.447l-1.434,-2.145l-4.681,-7.772l-3.052,-4.964l-4.271,-2.828l-1.16,-5.187l-3.979,-1.892l-2.126,-5.432l-4.729,-8.006l-2.087,0l-2.126,-1.677l-0.741,-8.24l-5.188,-15.563l1.16,-4.779l-2.145,-11.077l-1.901,-0.927l-0.693,-1.892l0.693,-8.522l1.852,-6.154l0.888,-12.511l7.733,-7.596l5.851,-4.964l4.212,-2.174l3.979,-0.469l1.853,1.161l3.286,-1.161l4.213,-0.039l0.156,0.205l2.837,4.028l4.213,0.234l1.668,1.891l7.732,0.888l0,2.126l1.161,0.985l0.692,0.458l9.41,3.52l1.853,-1.667l6.573,3.754l4.69,0.926l0.741,4.486l0.927,0.458l1.619,0.966l5.646,0.926l0.926,2.604l-0.692,5.646l1.667,1.892l4.925,3.286l3.052,1.911l3.754,-0.516l7.314,7.089l4.681,-0.039l3.52,2.594l5.373,3.754l4.037,1.892l0.693,2.37l3.978,1.394l2.126,4.027l2.594,1.619l11.029,2.087l0.458,2.867l1.853,0.458l1.433,4.232l3.287,2.36l3.052,2.126l8.903,-4.086l4.447,-2.36l7.967,1.853l3.764,3.052l4.486,-0.234l4.446,2.37l4.447,3.286l0.926,-0.234l3.306,-0.507l2.126,1.668l1.853,-1.2l2.36,2.594l5.139,1.395l4.729,2.594l6.066,-1.2l6.338,3.754l3.979,-0.273l3.306,3.326l4.027,2.32l5.373,1.892l1.433,0.693l1.619,0.458l1.219,2.604l2.545,2.36l7.041,1.852l2.36,2.828l0.926,0.459l1.2,0.692l2.145,1.667l8.191,2.087l3.979,-0.234l2.594,2.321l0.234,0.234l1.619,0.741l7.284,1.853l3.101,5.432l3.471,-0.273l8.718,4.953l3.287,0.927l1.16,0.234l2.828,0.234l6.816,4.212l4.028,5.89l4.68,1.619l3.804,4.028l5.139,1.394l8.474,4.447l3.764,6.358l1.667,0.458l10.327,4.905l10.385,11.77l4.447,2.126l2.146,-1.199l2.593,8.24l1.892,0.458l4.447,4.271l2.36,7.08l0,0.458l4.271,1.853l2.321,3.052l4.027,1.16l0.693,4.038l3.052,3.052l1.219,4.251l-0.927,1.853l1.434,5.705l-0.398,0.856l-437.854,0Z" style="fill-rule:nonzero;"/><path d="M734.639,531.51c-24.622,0 -44.525,19.903 -44.525,44.525c0,24.623 19.903,44.526 44.525,44.526c24.623,0 44.438,-19.903 44.438,-44.526c0,-24.622 -19.815,-44.525 -44.438,-44.525Z" style="fill-rule:nonzero;"/><path d="M281.047,531.51c-24.622,0 -44.525,19.903 -44.525,44.525c0,24.623 19.903,44.526 44.525,44.526c24.623,0 44.438,-19.903 44.438,-44.526c0,-24.622 -19.815,-44.525 -44.438,-44.525Z" style="fill-rule:nonzero;"/><path d="M111.892,515.742l250.951,0l0,20.068c0,11.858 9.654,21.59 21.502,21.59l17.202,0c11.858,0 21.59,-9.732 21.59,-21.59l0,-20.068l370.275,0l0,20.068c0,11.858 9.654,21.59 21.502,21.59l17.289,0c11.858,0 21.503,-9.732 21.503,-21.59l0,-91.83c0,-11.858 -9.654,-21.502 -21.503,-21.502l-17.289,0c-11.858,0 -21.502,9.654 -21.502,21.502l0,66.028l-370.275,0l0,-66.028c0,-11.858 -9.732,-21.502 -21.59,-21.502l-17.202,0c-11.858,0 -21.502,9.654 -21.502,21.502l0,66.028l-250.536,0l-0.37,5.059l2.145,-32.295l35.329,0c0.438,-0.049 0.865,-0.164 1.268,-0.342c0.86,-0.379 1.573,-1.03 2.028,-1.852l17.29,-28.67c0.389,-0.662 0.595,-1.417 0.595,-2.185c0,-2.364 -1.946,-4.31 -4.31,-4.31c-0.026,0 -0.053,0 -0.079,0.001l-44.701,0l23.862,-38.197c0.587,-1.015 1.563,-1.748 2.702,-2.028l0.009,0c0.308,-0.034 0.619,-0.034 0.927,0l752.096,0c0.027,-0.001 0.055,-0.001 0.082,-0.001c2.365,0 4.31,1.946 4.31,4.31c0,0.645 -0.144,1.282 -0.423,1.863l-22.097,49.665l-1.102,-1.775c-0.801,-1.601 -2.519,-2.545 -4.3,-2.36c-2.163,0.261 -3.805,2.123 -3.794,4.301l0,63.16c0.006,2.357 1.944,4.295 4.301,4.301l34.491,0c1.938,-0.015 3.639,-1.335 4.134,-3.209c0.002,0.056 0.002,0.111 0,0.166l-17.201,57.427c-0.56,1.805 -2.245,3.041 -4.135,3.033l-108.612,0c0.624,-3.248 0.926,-6.612 0.926,-10.035c0,-29.283 -23.842,-53.126 -53.126,-53.126c-29.284,0 -53.127,23.843 -53.127,53.126c0,3.423 0.39,6.787 1.015,10.035l-349.281,0c0.624,-3.248 0.927,-6.612 0.927,-10.035c0,-29.283 -23.755,-53.126 -53.039,-53.126c-29.284,0 -53.126,23.843 -53.126,53.126c0,3.423 0.302,6.787 0.926,10.035l-91.411,0c-1.518,0 -2.929,-0.802 -3.705,-2.107l-23.023,-40.225c-0.423,-0.77 -0.6,-1.652 -0.508,-2.525l1.692,-25.471Zm272.453,-84.663l17.202,0c7.235,0 12.989,5.675 12.989,12.901l0,91.83c0,7.236 -5.754,12.902 -12.989,12.902l-17.202,0c-7.236,0 -12.901,-5.676 -12.901,-12.902l0,-91.83c0,-7.235 5.675,-12.901 12.901,-12.901Zm430.569,0l17.289,0c7.236,0 12.902,5.675 12.902,12.901l0,91.83c0,7.236 -5.676,12.902 -12.902,12.902l-17.289,0c-7.236,0 -12.901,-5.676 -12.901,-12.902l0,-91.83c0,-7.235 5.675,-12.901 12.901,-12.901Zm101.921,93.273c-0.001,-0.202 -0.017,-0.404 -0.047,-0.604c0.03,0.2 0.046,0.402 0.047,0.604c0.001,0.222 -0.014,0.444 -0.047,0.663c0.031,-0.21 0.047,-0.422 0.047,-0.633l0,-0.03Zm-286.42,-78.938c-1.214,0.256 -2.259,1.024 -2.867,2.106l-17.289,28.757c-0.39,0.663 -0.595,1.417 -0.595,2.185c0,2.365 1.946,4.311 4.31,4.311c0.026,0 0.052,-0.001 0.078,-0.001l149.257,0c1.567,0.014 3.024,-0.829 3.793,-2.194l17.202,-28.67c0.389,-0.662 0.595,-1.417 0.595,-2.185c0,-2.364 -1.946,-4.31 -4.31,-4.31c-0.026,0 -0.052,0 -0.078,0.001l-149.257,0c-0.279,-0.028 -0.56,-0.028 -0.839,0Zm-436.39,0c-1.214,0.256 -2.26,1.024 -2.867,2.106l-17.202,28.757c-0.389,0.662 -0.595,1.417 -0.595,2.185c0,2.36 1.94,4.304 4.301,4.31l149.344,0c1.536,-0.018 2.952,-0.856 3.706,-2.194l17.289,-28.67c0.39,-0.662 0.595,-1.417 0.595,-2.185c0,-2.364 -1.946,-4.31 -4.31,-4.31c-0.026,0 -0.052,0 -0.078,0.001l-149.257,0c-0.308,-0.034 -0.619,-0.034 -0.926,0Zm258.376,0c-1.214,0.256 -2.259,1.024 -2.867,2.106l-17.202,28.757c-0.389,0.662 -0.594,1.417 -0.594,2.185c0,2.36 1.939,4.304 4.3,4.31l149.345,0c1.536,-0.018 2.951,-0.856 3.705,-2.194l17.202,-28.67c0.389,-0.662 0.594,-1.416 0.594,-2.184c0,-2.361 -1.939,-4.305 -4.3,-4.31l-149.257,0c-0.307,-0.034 -0.618,-0.034 -0.926,0Z" style="fill-rule:nonzero;"/></svg>