<?xml version="1.0" encoding="UTF-8" standalone="no"?><!DOCTYPE svg PUBLIC "-//W3C//DTD SVG 1.1//EN" "http://www.w3.org/Graphics/SVG/1.1/DTD/svg11.dtd"><svg width="100%" height="100%" viewBox="0 0 108 108" version="1.1" xmlns="http://www.w3.org/2000/svg" xmlns:xlink="http://www.w3.org/1999/xlink" xml:space="preserve" xmlns:serif="http://www.serif.com/" style="fill-rule:evenodd;clip-rule:evenodd;stroke-linejoin:round;stroke-miterlimit:2;"><path d="M49.8,91.7c-0.7,-0.5 -0.8,-0.9 -0.2,-0.9c0.3,0 0.7,-0.1 1,-0.3c0.6,-0.4 0.9,-1 4,-7.7c6.533,-14.495 13.2,-28.929 20,-43.3c0.2,-0.6 0.5,-0.6 1,0c0.7,0.7 0.5,1 -3,8.7c-3.3,7 -6.6,13.9 -9.7,20.9l-6.3,13.5c-1.197,3.211 -2.775,6.266 -4.7,9.1c-0.6,0.5 -1.5,0.5 -2,0l-0.1,0Zm-2.5,-2.5l-0.8,-0.9c-0.2,-0.6 -0.4,0.3 4.3,-18.7l2,-8.3c0.6,-2.8 1.2,-5.1 1,-5.2c0,0 -3.2,0.6 -7,1.7l-7.8,1.7c-0.6,-0.2 -1.5,-0.9 -1.3,-1.1l16.5,-4.1c0.2,-0.2 0.3,-0.4 0.4,-0.9l0,-0.7l-8.9,2c-3.062,0.884 -6.166,1.618 -9.3,2.2c-0.6,-0.1 -1.5,-1 -1.5,-1.4l8.6,-36c0.1,-0.4 0.4,-0.8 0.7,-1.1l0.6,-0.4l7.6,0c6.4,0 7.6,0 8,0.2c0.6,0.3 1,0.8 1,1.4l-2,5.7l-5.3,14.7c0,0.4 1.7,0 1.9,-0.4l6.2,-17c0.7,-2 0.9,-2.3 1.5,-1.5c0.2,0.3 0.4,0.6 0.4,1l-1.7,4.9c-1.6,4 -3,8 -4.4,12c0,0.2 0,0.2 0.2,0.2l6.7,-1.6c4.7,-1.1 6.7,-1.6 7,-1.5c0.8,0.2 1.5,1 1.5,1.7c0,0.4 -1,2.6 -3.4,7.8l-9.7,20.8l-6.3,13.6c-1.16,3.258 -2.74,6.351 -4.7,9.2c-0.6,0.4 -1.4,0.4 -2,0Z" style="fill:#7dc36b;fill-rule:nonzero;"/></svg>