<?xml version="1.0" encoding="UTF-8" standalone="no"?><!DOCTYPE svg PUBLIC "-//W3C//DTD SVG 1.1//EN" "http://www.w3.org/Graphics/SVG/1.1/DTD/svg11.dtd"><svg width="100%" height="100%" viewBox="0 0 1024 1024" version="1.1" xmlns="http://www.w3.org/2000/svg" xmlns:xlink="http://www.w3.org/1999/xlink" xml:space="preserve" xmlns:serif="http://www.serif.com/" style="fill-rule:evenodd;clip-rule:evenodd;stroke-linejoin:round;stroke-miterlimit:2;"><path d="M802,307c0,-46.913 -38.087,-85 -85,-85l-410,0c-46.913,0 -85,38.087 -85,85l0,410c0,46.913 38.087,85 85,85l410,0c46.913,0 85,-38.087 85,-85l0,-410Zm-23.969,0l0,410c0,33.684 -27.347,61.031 -61.031,61.031l-410,0c-33.684,0 -61.031,-27.347 -61.031,-61.031l0,-410c0,-33.684 27.347,-61.031 61.031,-61.031l410,0c33.684,0 61.031,27.347 61.031,61.031Z" style="fill:#101244;"/><path d="M716.82,330.538c-6.563,-43.831 -47.476,-74.088 -91.307,-67.525l-294.975,44.167c-43.831,6.563 -74.088,47.476 -67.525,91.307l44.167,294.975c6.563,43.831 47.476,74.088 91.307,67.525l294.975,-44.167c43.831,-6.563 74.088,-47.476 67.525,-91.307l-44.167,-294.975Zm-12.362,1.851l44.167,294.975c5.541,37.008 -20.006,71.553 -57.014,77.094c0,0 -294.975,44.167 -294.975,44.167c-37.008,5.541 -71.553,-20.006 -77.094,-57.014c0,0 -44.167,-294.975 -44.167,-294.975c-5.541,-37.008 20.006,-71.553 57.014,-77.094c0,0 294.975,-44.167 294.975,-44.167c37.008,-5.541 71.553,20.006 77.094,57.014Z" style="fill:#101244;fill-opacity:0.25;"/><path d="M763.889,308.082c-3.066,-43.853 -41.159,-76.966 -85.012,-73.899l-370.795,25.928c-43.853,3.066 -76.966,41.159 -73.899,85.012l25.928,370.795c3.066,43.853 41.159,76.966 85.012,73.899l370.795,-25.928c43.853,-3.066 76.966,-41.159 73.899,-85.012l-25.928,-370.795Zm-12.47,0.872l25.929,370.795c2.585,36.971 -25.332,69.085 -62.302,71.67c0,0 -370.795,25.929 -370.795,25.929c-36.971,2.585 -69.085,-25.332 -71.67,-62.302c0,0 -25.929,-370.795 -25.929,-370.795c-2.585,-36.971 25.332,-69.085 62.302,-71.67c0,0 370.795,-25.929 370.795,-25.929c36.971,-2.585 69.085,25.332 71.67,62.302Z" style="fill:#101244;fill-opacity:0.25;"/><path d="M665.782,347.268c-11.763,-41.007 -54.605,-64.75 -95.613,-52.987l-222.901,63.937c-41.007,11.763 -64.75,54.605 -52.987,95.613l63.937,222.901c11.763,41.007 54.605,64.75 95.613,52.987l222.901,-63.937c41.007,-11.763 64.75,-54.605 52.987,-95.613l-63.937,-222.901Zm-12.015,3.447l63.937,222.901c9.861,34.376 -10.043,70.29 -44.419,80.151c0,0 -222.901,63.937 -222.901,63.937c-34.376,9.861 -70.29,-10.043 -80.151,-44.419c0,0 -63.937,-222.901 -63.937,-222.901c-9.861,-34.376 10.043,-70.29 44.419,-80.151c0,0 222.901,-63.937 222.901,-63.937c34.376,-9.861 70.29,10.043 80.151,44.419Z" style="fill:#101244;fill-opacity:0.25;"/><path d="M622.694,377.216c-17.537,-39.316 -63.694,-56.997 -103.009,-39.46l-142.469,63.55c-39.316,17.537 -56.997,63.694 -39.46,103.009l63.55,142.469c17.537,39.316 63.694,56.997 103.009,39.46l142.469,-63.55c39.316,-17.537 56.997,-63.694 39.46,-103.009l-63.55,-142.469Zm-11.416,5.092l63.55,142.469c14.727,33.015 -0.121,71.775 -33.136,86.501c0,0 -142.469,63.55 -142.469,63.55c-33.015,14.727 -71.775,-0.121 -86.501,-33.136c0,0 -63.55,-142.469 -63.55,-142.469c-14.727,-33.015 0.121,-71.775 33.136,-86.501c0,0 142.469,-63.55 142.469,-63.55c33.015,-14.727 71.775,0.121 86.501,33.136Z" style="fill:#101244;fill-opacity:0.25;"/><path d="M590.915,411.806c-22.447,-35.955 -69.863,-46.922 -105.818,-24.475l-73.291,45.754c-35.955,22.447 -46.922,69.863 -24.475,105.818l45.754,73.291c22.447,35.955 69.863,46.922 105.818,24.475l73.291,-45.754c35.955,-22.447 46.922,-69.863 24.475,-105.818l-45.754,-73.291Zm-10.604,6.62l45.755,73.29c18.793,30.104 9.611,69.802 -20.492,88.595c0,0 -73.29,45.755 -73.29,45.755c-30.104,18.793 -69.802,9.611 -88.595,-20.492c0,0 -45.755,-73.29 -45.755,-73.29c-18.793,-30.104 -9.611,-69.802 20.492,-88.595c0,0 73.29,-45.755 73.29,-45.755c30.104,-18.793 69.802,-9.611 88.595,20.492Z" style="fill:#101244;fill-opacity:0.25;"/><path d="M512,439c40.29,0 73,32.71 73,73c0,40.29 -32.71,73 -73,73c-40.29,0 -73,-32.71 -73,-73c0,-40.29 32.71,-73 73,-73Zm0,25c26.492,0 48,21.508 48,48c0,26.492 -21.508,48 -48,48c-26.492,0 -48,-21.508 -48,-48c0,-26.492 21.508,-48 48,-48Z" style="fill:#101244;"/></svg>
