<?xml version="1.0" encoding="UTF-8" standalone="no"?><!DOCTYPE svg PUBLIC "-//W3C//DTD SVG 1.1//EN" "http://www.w3.org/Graphics/SVG/1.1/DTD/svg11.dtd"><svg width="100%" height="100%" viewBox="0 0 432 432" version="1.1" xmlns="http://www.w3.org/2000/svg" xmlns:xlink="http://www.w3.org/1999/xlink" xml:space="preserve" xmlns:serif="http://www.serif.com/" style="fill-rule:evenodd;clip-rule:evenodd;stroke-linejoin:round;stroke-miterlimit:2;"><path d="M120.04,143.6l-0.64,-32c0.1,-18.8 12.2,-34.4 30.4,-35.9c18.2,-1.5 32.3,11.9 35.8,30.4l2.29,15.705c-2.994,1.697 -4.693,2.698 -6.99,5.195c-3,-0.8 -6.3,-1.3 -9.5,-1.3c-18.1,0 -27.3,12.8 -33.2,21.9l-18.08,0l-0.02,-1l0,-3l-0.06,0Z" style="fill:#ddd58c;fill-rule:nonzero;"/><path d="M144.034,147.6c7.255,-15.009 24.55,-23.099 40.966,-18.5c6.574,-6.99 15.755,-10.958 25.35,-10.958c9.595,0 18.776,3.968 25.35,10.958c5.762,-1.648 14.1,-1 14.1,-1l0,10.5c-10.4,1.8 -19.1,6.2 -24,15c-3.243,0.499 -6.518,0.767 -9.8,0.8c-9.862,0.221 -19.615,-2.123 -28.3,-6.8l-43.666,0Z" style="fill:#74a34b;fill-rule:nonzero;"/><path d="M253.8,138.6l0,-45.4c-1.93,-0.589 -3.258,-2.382 -3.258,-4.4c0,-2.018 1.328,-3.811 3.258,-4.4l0,-5.7c0,-4.5 3.7,-8.2 8.2,-8.2l15.4,0c4.5,0 8.2,3.7 8.3,8.2l0,5.7c1.93,0.589 3.258,2.382 3.258,4.4c0,2.018 -1.328,3.811 -3.258,4.4l0,45.4c4.56,0.782 8.87,2.486 12.685,4.962c1.768,1.279 3.44,2.562 5.015,4.038l-59,0c-3.93,2.28 -8.176,3.965 -12.6,5c3.265,-4.646 7.555,-8.386 12.524,-10.897c2.955,-1.48 6.142,-2.535 9.476,-3.103Z" style="fill:#84433a;fill-rule:nonzero;"/><path d="M135.7,261.2c1.232,19.535 9.557,37.962 23.4,51.8l11.7,-11.7c-10.676,-10.676 -17.271,-24.937 -18.492,-40l0.092,0l-0.007,-0.1l15.807,0c1.141,10.96 6.015,21.202 13.8,29l11.3,-11.3c-4.8,-4.796 -7.953,-10.996 -9,-17.7l16.9,0c2.171,6.328 8.16,10.604 14.85,10.604c6.69,0 12.679,-4.276 14.85,-10.604l16.8,0c-1.06,6.621 -4.174,12.744 -8.9,17.5l11.3,11.4c7.8,-7.9 12.6,-18 13.8,-28.9l15.708,0l-0.008,0.1l0.092,0c-1.222,15.051 -7.74,29.194 -18.392,39.9l11.6,11.7c13.761,-13.804 22.042,-32.152 23.293,-51.6l0.007,0l0.006,-0.1l20.794,0l8.2,72c0,9.3 -7.6,17.3 -17,17.3l-184.4,0c-9.4,0 -17,-8 -17,-17.3l8.1,-72l20.8,0Z" style="fill:#ddcdab;fill-rule:nonzero;"/><path d="M135.794,261.2l-20.794,0l-8,-105.5c-0.001,-0.033 -0.001,-0.067 -0.001,-0.1c0,-2.194 1.805,-4 4,-4l76.601,0c8.715,4.694 18.504,7.038 28.4,6.8c9.896,0.238 19.685,-2.106 28.4,-6.8l76.7,0l0.2,0.1c2.194,0 4,1.806 4,4l-8.1,105.5l-20.994,0c0.102,-1.65 0.153,-3.303 0.153,-4.957c0,-44.106 -36.294,-80.4 -80.4,-80.4c-21.27,0 -41.694,8.441 -56.759,23.457c-16.377,16.277 -24.876,38.837 -23.406,61.9Zm16.599,0c-0.115,-1.565 -0.173,-3.133 -0.173,-4.701c0,-35.061 28.72,-63.97 63.78,-64.199c35.032,0.112 63.796,28.968 63.796,64c0,1.635 -0.063,3.27 -0.188,4.9l-15.808,0c0.169,-1.638 0.253,-3.283 0.253,-4.93c0,-26.387 -21.713,-48.1 -48.1,-48.1c-12.723,0 -24.941,5.049 -33.953,14.03c-10.167,10.162 -15.245,24.369 -13.835,38.662l0.035,0.338l-15.807,0Zm32.007,0c-0.25,-1.621 -0.376,-3.26 -0.376,-4.9c0,-17.563 14.413,-32.032 31.976,-32.1c17.573,0.131 31.96,14.625 31.96,32.199c0,1.607 -0.12,3.212 -0.36,4.801l-16.8,0c0.484,-1.531 0.731,-3.128 0.731,-4.734c0,-8.613 -7.088,-15.7 -15.7,-15.7c-4.032,0 -7.912,1.553 -10.831,4.334l-0.1,0c-4.2,4.2 -5.7,10.5 -3.7,16.1l-16.8,0Z" style="fill:#d1bfa1;fill-rule:nonzero;"/><path d="M110.9,155.7l76.7,0c8.715,4.694 18.504,7.038 28.4,6.8c9.896,0.238 19.685,-2.106 28.4,-6.8l76.6,0c1.836,-0.07 3.496,1.133 4,2.9l0.1,-3c0,-2.194 -1.806,-4 -4,-4l-76.8,0c-8.715,4.694 -18.504,7.038 -28.4,6.8c-9.896,0.238 -19.685,-2.106 -28.4,-6.8l-76.5,0c-2.194,0 -4,1.806 -4,4l0,3c0.465,-1.806 2.136,-3.059 4,-3l-0.1,0.1Z" style="fill:#fff;fill-opacity:0.25;fill-rule:nonzero;"/><path d="M308.2,346.4l-184.4,0c-8.6,0 -15.6,-6.6 -16.8,-14.9l-0.2,1.7c0,9.3 7.6,17.3 17,17.3l184.4,0c9.4,0 17,-8 17,-17.3l-0.2,-1.7c-1.2,8.3 -8.2,15 -16.8,15l0,-0.1Z" style="fill:#997d55;fill-opacity:0.5;fill-rule:nonzero;"/></svg>