<?xml version="1.0" encoding="UTF-8" standalone="no"?><!DOCTYPE svg PUBLIC "-//W3C//DTD SVG 1.1//EN" "http://www.w3.org/Graphics/SVG/1.1/DTD/svg11.dtd"><svg width="100%" height="100%" viewBox="0 0 432 432" version="1.1" xmlns="http://www.w3.org/2000/svg" xmlns:xlink="http://www.w3.org/1999/xlink" xml:space="preserve" xmlns:serif="http://www.serif.com/" style="fill-rule:evenodd;clip-rule:evenodd;stroke-linejoin:round;stroke-miterlimit:2;"><path d="M75.464,112.539l-0.937,-46.857c0.146,-27.528 17.864,-50.371 44.514,-52.568c26.65,-2.196 47.297,17.425 52.422,44.515l3.353,22.996c-4.384,2.485 -6.872,3.951 -10.236,7.607c-4.392,-1.171 -9.225,-1.903 -13.91,-1.903c-26.504,0 -39.975,18.742 -48.615,32.067l-26.474,0l-0.029,-1.464l0,-4.393l-0.088,0Z" style="fill:#ddd58c;fill-rule:nonzero;"/><path d="M110.598,118.396c10.623,-21.977 35.948,-33.823 59.986,-27.089c9.626,-10.235 23.07,-16.045 37.12,-16.045c14.049,0 27.493,5.81 37.119,16.045c8.437,-2.413 20.647,-1.464 20.647,-1.464l0,15.375c-15.229,2.636 -27.968,9.078 -35.143,21.964c-4.749,0.731 -9.544,1.123 -14.35,1.172c-14.441,0.323 -28.722,-3.109 -41.44,-9.958l-63.939,0Z" style="fill:#74a34b;fill-rule:nonzero;"/><path d="M271.327,105.218l0,-66.479c-2.826,-0.862 -4.771,-3.488 -4.771,-6.443c0,-2.954 1.945,-5.58 4.771,-6.442l0,-8.347c0,-6.589 5.418,-12.007 12.007,-12.007l22.55,0c6.589,0 12.007,5.418 12.153,12.007l0,8.347c2.827,0.862 4.771,3.488 4.771,6.442c0,2.955 -1.944,5.581 -4.771,6.443l0,66.479c6.678,1.145 12.989,3.64 18.575,7.266c2.589,1.872 5.037,3.751 7.343,5.912l-86.393,0c-5.754,3.339 -11.972,5.806 -18.45,7.322c4.781,-6.803 11.063,-12.28 18.339,-15.956c4.327,-2.168 8.994,-3.712 13.876,-4.544Z" style="fill:#84433a;fill-rule:nonzero;"/><path d="M98.395,284.739c1.804,28.605 13.994,55.587 34.264,75.85l17.132,-17.132c-15.633,-15.633 -25.29,-36.515 -27.077,-58.571l0.134,0l-0.01,-0.147l23.146,0c1.671,16.049 8.808,31.046 20.207,42.465l16.547,-16.547c-7.029,-7.023 -11.646,-16.101 -13.179,-25.918l24.746,0c3.179,9.266 11.949,15.528 21.745,15.528c9.796,0 18.566,-6.262 21.745,-15.528l24.6,0c-1.553,9.695 -6.112,18.661 -13.032,25.625l16.546,16.693c11.421,-11.568 18.45,-26.357 20.207,-42.318l23.001,0l-0.012,0.147l0.135,0c-1.789,22.039 -11.333,42.748 -26.931,58.425l16.986,17.132c20.15,-20.213 32.275,-47.08 34.107,-75.557l0.011,0l0.008,-0.147l30.449,0l12.007,105.429c0,13.618 -11.129,25.332 -24.893,25.332l-270.014,0c-13.765,0 -24.893,-11.714 -24.893,-25.332l11.861,-105.429l30.457,0Z" style="fill:#ddcdab;fill-rule:nonzero;"/><path d="M98.532,284.739l-30.448,0l-11.714,-154.482c-0.002,-0.048 -0.002,-0.098 -0.002,-0.146c0,-3.213 2.643,-5.857 5.857,-5.857l112.166,0c12.761,6.873 27.095,10.305 41.586,9.957c14.49,0.348 28.824,-3.084 41.586,-9.957l112.31,0l0.293,0.146c3.213,0 5.857,2.644 5.857,5.857l-11.861,154.482l-30.741,0c0.15,-2.416 0.224,-4.836 0.224,-7.258c0,-64.584 -53.144,-117.729 -117.728,-117.729c-31.146,0 -61.052,12.36 -83.112,34.348c-23.98,23.834 -36.425,56.868 -34.273,90.639Zm24.306,0c-0.168,-2.291 -0.253,-4.587 -0.253,-6.883c0,-51.34 42.054,-93.671 93.392,-94.006c51.297,0.164 93.415,42.417 93.415,93.714c0,2.394 -0.092,4.788 -0.275,7.175l-23.147,0c0.247,-2.398 0.37,-4.807 0.37,-7.219c0,-38.638 -31.794,-70.432 -70.432,-70.432c-18.63,0 -36.521,7.393 -49.717,20.544c-14.887,14.88 -22.323,35.683 -20.258,56.612l0.051,0.495l-23.146,0Zm46.867,0c-0.366,-2.373 -0.55,-4.773 -0.55,-7.175c0,-25.717 21.105,-46.904 46.822,-47.003c25.732,0.192 46.798,21.415 46.798,47.148c0,2.353 -0.175,4.704 -0.527,7.03l-24.6,0c0.709,-2.242 1.071,-4.58 1.071,-6.932c0,-12.612 -10.379,-22.989 -22.99,-22.989c-5.904,0 -11.585,2.274 -15.859,6.346l-0.147,0c-6.15,6.15 -8.346,15.375 -5.418,23.575l-24.6,0Z" style="fill:#d1bfa1;fill-rule:nonzero;"/><path d="M62.08,130.257l112.311,0c12.761,6.873 27.095,10.306 41.586,9.957c14.49,0.349 28.824,-3.083 41.585,-9.957l112.165,0c2.688,-0.102 5.119,1.659 5.857,4.247l0.146,-4.393c0,-3.213 -2.644,-5.857 -5.857,-5.857l-112.457,0c-12.761,6.873 -27.095,10.305 -41.586,9.957c-14.49,0.348 -28.824,-3.084 -41.585,-9.957l-112.018,0c-3.213,0 -5.857,2.644 -5.857,5.857l0,4.393c0.681,-2.645 3.127,-4.48 5.857,-4.393l-0.147,0.146Z" style="fill:#fff;fill-opacity:0.25;fill-rule:nonzero;"/><path d="M350.984,409.496l-270.014,0c-12.593,0 -22.843,-9.664 -24.6,-21.817l-0.293,2.489c0,13.618 11.128,25.332 24.893,25.332l270.014,0c13.764,0 24.893,-11.714 24.893,-25.332l-0.293,-2.489c-1.757,12.153 -12.007,21.964 -24.6,21.964l0,-0.147Z" style="fill:#997d55;fill-opacity:0.5;fill-rule:nonzero;"/></svg>